<?xml version="1.0" encoding="UTF-8"?>
<svg xmlns="http://www.w3.org/2000/svg" xmlns:xlink="http://www.w3.org/1999/xlink" width="60pt" height="104.999996pt" viewBox="0 0 60 104.999996" version="1.2">
<defs>
<clipPath id="clip1">
  <path d="M 0 63 L 60 63 L 60 103.5 L 0 103.5 Z M 0 63 "/>
</clipPath>
</defs>
<g id="surface1">
<path style=" stroke:none;fill-rule:nonzero;fill:rgb(61.569214%,36.079407%,31.369019%);fill-opacity:1;" d="M 57.726562 43.867188 C 57.726562 66.023438 44.933594 83.988281 29.152344 83.988281 C 13.367188 83.988281 0.574219 66.023438 0.574219 43.867188 C 0.574219 21.707031 13.367188 3.742188 29.152344 3.742188 C 44.933594 3.742188 57.726562 21.707031 57.726562 43.867188 "/>
<g clip-path="url(#clip1)" clip-rule="nonzero">
<path style=" stroke:none;fill-rule:nonzero;fill:rgb(41.178894%,80.389404%,78.42865%);fill-opacity:1;" d="M 59.980469 83.660156 C 59.980469 72.546875 46.558594 63.542969 30.003906 63.542969 C 13.449219 63.542969 0.0273438 72.546875 0.0273438 83.660156 C 0.0273438 94.769531 13.449219 103.777344 30.003906 103.777344 C 46.558594 103.777344 59.980469 94.769531 59.980469 83.660156 "/>
</g>
<path style=" stroke:none;fill-rule:nonzero;fill:rgb(97.24884%,63.919067%,66.268921%);fill-opacity:1;" d="M 54.722656 27.640625 C 54.722656 31.746094 52.515625 35.074219 49.789062 35.074219 C 47.066406 35.074219 44.855469 31.746094 44.855469 27.640625 C 44.855469 23.535156 47.066406 20.207031 49.789062 20.207031 C 52.515625 20.207031 54.722656 23.535156 54.722656 27.640625 "/>
<path style=" stroke:none;fill-rule:nonzero;fill:rgb(92.158508%,52.938843%,50.19989%);fill-opacity:1;" d="M 53.097656 27.640625 C 53.097656 29.871094 51.757812 31.679688 50.101562 31.679688 C 48.449219 31.679688 51.78125 30.582031 51.332031 28.402344 C 51.011719 26.851562 48.449219 23.601562 50.101562 23.601562 C 51.757812 23.601562 53.097656 25.410156 53.097656 27.640625 "/>
<path style=" stroke:none;fill-rule:nonzero;fill:rgb(98.429871%,78.42865%,78.42865%);fill-opacity:1;" d="M 3.578125 27.640625 C 3.578125 31.746094 5.785156 35.074219 8.511719 35.074219 C 11.234375 35.074219 13.445312 31.746094 13.445312 27.640625 C 13.445312 23.535156 11.234375 20.207031 8.511719 20.207031 C 5.785156 20.207031 3.578125 23.535156 3.578125 27.640625 "/>
<path style=" stroke:none;fill-rule:nonzero;fill:rgb(92.158508%,52.938843%,50.19989%);fill-opacity:1;" d="M 5.203125 27.640625 C 5.203125 29.871094 6.542969 31.679688 8.199219 31.679688 C 9.851562 31.679688 6.519531 30.582031 6.96875 28.402344 C 7.292969 26.851562 9.851562 23.601562 8.199219 23.601562 C 6.542969 23.601562 5.203125 25.410156 5.203125 27.640625 "/>
<path style=" stroke:none;fill-rule:nonzero;fill:rgb(98.429871%,78.42865%,78.42865%);fill-opacity:1;" d="M 50.199219 32.4375 C 50.199219 47.402344 35.59375 55.058594 29.199219 55.058594 C 23.359375 55.058594 8.199219 47.402344 8.199219 32.4375 C 8.199219 8.78125 17.601562 5.335938 29.199219 5.335938 C 40.796875 5.335938 50.199219 17.46875 50.199219 32.4375 "/>
<path style=" stroke:none;fill-rule:nonzero;fill:rgb(97.24884%,63.919067%,66.268921%);fill-opacity:1;" d="M 29.367188 5.339844 L 29.367188 55.058594 C 36.371094 55.058594 50.199219 47.191406 50.199219 32.4375 C 50.199219 8.105469 40.886719 5.460938 29.367188 5.339844 "/>
<path style=" stroke:none;fill-rule:nonzero;fill:rgb(61.569214%,36.079407%,31.369019%);fill-opacity:1;" d="M 11.121094 25.253906 L 11.121094 12.929688 C 9.824219 16.121094 8.835938 20.164062 8.226562 25.253906 L 11.121094 25.253906 "/>
<path style=" stroke:none;fill-rule:nonzero;fill:rgb(61.569214%,36.079407%,31.369019%);fill-opacity:1;" d="M 51.148438 25.25 C 50.078125 20.546875 48.695312 16.105469 47.035156 12.007812 L 47.035156 25.25 L 51.148438 25.25 "/>
<path style=" stroke:none;fill-rule:nonzero;fill:rgb(98.429871%,78.42865%,78.42865%);fill-opacity:1;" d="M 35.402344 45.242188 L 24.375 45.242188 C 25.917969 50.652344 24.949219 60.457031 21.464844 65.867188 C 24.25 69.066406 27.214844 78.609375 30.003906 78.632812 C 32.832031 78.65625 35.484375 69.113281 38.316406 65.867188 C 34.828125 60.457031 33.859375 50.652344 35.402344 45.242188 "/>
<path style=" stroke:none;fill-rule:nonzero;fill:rgb(97.24884%,63.919067%,66.268921%);fill-opacity:1;" d="M 35.402344 45.242188 L 29.574219 45.242188 C 29.957031 47.050781 30.171875 48.898438 30.398438 50.722656 C 30.808594 54.023438 31.050781 62.273438 30.964844 65.597656 C 30.816406 71.179688 29.890625 71.621094 28.152344 76.8125 C 28.777344 77.929688 29.394531 78.625 30.003906 78.632812 C 32.832031 78.65625 35.484375 69.113281 38.316406 65.867188 C 34.828125 60.457031 33.859375 50.652344 35.402344 45.242188 "/>
<path style=" stroke:none;fill-rule:nonzero;fill:rgb(56.858826%,61.959839%,84.309387%);fill-opacity:1;" d="M 38.996094 34.347656 L 38.140625 33.769531 C 47.875 19.265625 48.835938 18.710938 49.707031 18.976562 C 50.304688 19.160156 50.304688 19.921875 50.304688 20.207031 L 49.273438 20.207031 C 49.273438 20.183594 49.273438 20.160156 49.273438 20.136719 C 47.628906 21.480469 41.644531 30.402344 38.996094 34.347656 "/>
<path style=" stroke:none;fill-rule:nonzero;fill:rgb(56.858826%,61.959839%,84.309387%);fill-opacity:1;" d="M 42.1875 39.097656 L 41.707031 38.179688 C 43.914062 37.019531 46.21875 36.378906 47.902344 35.910156 C 48.996094 35.605469 50.351562 35.226562 50.511719 34.953125 C 50.503906 34.964844 50.5 34.992188 50.503906 35.003906 L 51.484375 34.695312 C 51.566406 34.953125 51.542969 35.214844 51.414062 35.449219 C 51.058594 36.105469 49.972656 36.410156 48.179688 36.910156 C 46.449219 37.390625 44.292969 37.988281 42.1875 39.097656 "/>
<path style=" stroke:none;fill-rule:nonzero;fill:rgb(67.059326%,70.199585%,88.238525%);fill-opacity:1;" d="M 20.203125 34.355469 C 17.125 29.890625 10.726562 20.605469 9.464844 20.289062 C 9.554688 20.3125 9.695312 20.238281 9.746094 20.148438 L 8.730469 20.042969 C 8.792969 19.472656 9.152344 19.316406 9.308594 19.277344 C 10.476562 18.972656 13.003906 22.089844 21.046875 33.765625 L 20.203125 34.355469 "/>
<path style=" stroke:none;fill-rule:nonzero;fill:rgb(67.059326%,70.199585%,88.238525%);fill-opacity:1;" d="M 17.128906 39.140625 C 16.054688 38.890625 15.0625 38.671875 14.101562 38.464844 C 9.722656 37.507812 7.082031 36.929688 7.082031 35.074219 L 8.109375 35.074219 C 8.109375 36.09375 10.988281 36.722656 14.320312 37.449219 C 15.285156 37.660156 16.285156 37.878906 17.363281 38.132812 L 17.128906 39.140625 "/>
<path style=" stroke:none;fill-rule:nonzero;fill:rgb(67.059326%,70.199585%,88.238525%);fill-opacity:1;" d="M 29.574219 58.335938 C 23.472656 58.335938 11.121094 46.882812 11.121094 42.265625 C 11.121094 36.128906 23.472656 26.195312 29.574219 26.195312 C 35.679688 26.195312 48.03125 36.128906 48.03125 42.265625 C 48.03125 45.433594 35.679688 58.335938 29.574219 58.335938 "/>
<path style=" stroke:none;fill-rule:nonzero;fill:rgb(56.858826%,61.959839%,84.309387%);fill-opacity:1;" d="M 29.574219 26.195312 C 29.535156 26.195312 29.488281 26.199219 29.449219 26.199219 L 29.449219 58.328125 C 29.488281 58.328125 29.535156 58.335938 29.574219 58.335938 C 35.679688 58.335938 48.03125 45.433594 48.03125 42.265625 C 48.03125 36.128906 35.679688 26.195312 29.574219 26.195312 "/>
<path style=" stroke:none;fill-rule:nonzero;fill:rgb(86.268616%,87.059021%,94.898987%);fill-opacity:1;" d="M 37.746094 33.734375 C 34.589844 31.613281 31.613281 30.394531 29.574219 30.394531 C 27.539062 30.394531 24.558594 31.613281 21.402344 33.734375 L 20.832031 32.875 C 24.152344 30.640625 27.339844 29.359375 29.574219 29.359375 C 31.808594 29.359375 34.996094 30.640625 38.320312 32.875 L 37.746094 33.734375 "/>
<path style=" stroke:none;fill-rule:nonzero;fill:rgb(47.44873%,54.508972%,80.778503%);fill-opacity:1;" d="M 39.015625 39.671875 C 39.015625 39.671875 38.71875 39.550781 38.207031 39.324219 C 37.953125 39.210938 37.644531 39.070312 37.289062 38.921875 C 36.929688 38.78125 36.539062 38.597656 36.097656 38.425781 C 35.878906 38.34375 35.648438 38.253906 35.414062 38.164062 C 35.296875 38.117188 35.175781 38.066406 35.054688 38.019531 C 34.929688 37.976562 34.804688 37.933594 34.679688 37.886719 C 34.425781 37.800781 34.164062 37.710938 33.898438 37.617188 C 33.632812 37.535156 33.359375 37.453125 33.078125 37.367188 C 32.941406 37.324219 32.800781 37.28125 32.660156 37.238281 C 32.515625 37.207031 32.375 37.171875 32.230469 37.140625 C 32.085938 37.105469 31.9375 37.074219 31.792969 37.039062 C 31.648438 37.003906 31.503906 36.964844 31.355469 36.945312 C 31.058594 36.902344 30.761719 36.847656 30.464844 36.808594 L 29.796875 36.773438 L 29.632812 36.761719 L 29.589844 36.761719 L 29.582031 36.757812 C 29.59375 36.757812 29.546875 36.761719 29.605469 36.757812 C 29.289062 36.777344 28.972656 36.792969 28.65625 36.808594 C 28.359375 36.851562 28.078125 36.902344 27.792969 36.949219 C 27.648438 36.964844 27.503906 37.003906 27.359375 37.039062 C 27.210938 37.074219 27.066406 37.109375 26.921875 37.140625 C 26.777344 37.175781 26.632812 37.207031 26.492188 37.238281 C 26.351562 37.28125 26.210938 37.324219 26.070312 37.367188 C 25.792969 37.453125 25.519531 37.535156 25.25 37.617188 C 24.984375 37.710938 24.726562 37.800781 24.472656 37.890625 C 24.34375 37.933594 24.21875 37.976562 24.097656 38.019531 C 23.976562 38.070312 23.855469 38.117188 23.738281 38.164062 C 23.5 38.257812 23.273438 38.34375 23.050781 38.429688 C 22.613281 38.601562 22.21875 38.78125 21.859375 38.925781 C 21.5 39.070312 21.195312 39.210938 20.941406 39.324219 C 20.433594 39.550781 20.136719 39.671875 20.136719 39.671875 C 20.136719 39.671875 20.386719 39.476562 20.839844 39.144531 C 21.070312 38.984375 21.339844 38.777344 21.675781 38.574219 C 22.007812 38.371094 22.371094 38.117188 22.796875 37.894531 C 23.222656 37.667969 23.667969 37.390625 24.179688 37.175781 C 24.429688 37.058594 24.691406 36.941406 24.953125 36.820312 C 25.222656 36.699219 25.507812 36.609375 25.792969 36.5 C 25.933594 36.449219 26.078125 36.394531 26.222656 36.339844 C 26.371094 36.296875 26.523438 36.253906 26.675781 36.207031 C 26.980469 36.125 27.273438 36.019531 27.605469 35.964844 C 27.933594 35.90625 28.269531 35.839844 28.597656 35.792969 C 28.914062 35.769531 29.226562 35.746094 29.542969 35.726562 C 29.609375 35.722656 29.566406 35.726562 29.582031 35.726562 L 29.605469 35.726562 L 29.640625 35.730469 L 30.078125 35.757812 L 30.582031 35.796875 C 30.90625 35.84375 31.230469 35.910156 31.550781 35.964844 C 31.871094 36.015625 32.171875 36.128906 32.476562 36.210938 C 32.628906 36.253906 32.777344 36.296875 32.925781 36.34375 C 33.070312 36.394531 33.214844 36.449219 33.359375 36.5 C 33.644531 36.609375 33.929688 36.703125 34.195312 36.820312 C 34.460938 36.941406 34.71875 37.0625 34.972656 37.175781 C 35.480469 37.394531 35.925781 37.671875 36.355469 37.894531 C 36.777344 38.121094 37.144531 38.375 37.476562 38.578125 C 37.8125 38.777344 38.082031 38.984375 38.308594 39.148438 C 38.761719 39.472656 39.015625 39.671875 39.015625 39.671875 "/>
<path style=" stroke:none;fill-rule:nonzero;fill:rgb(47.44873%,54.508972%,80.778503%);fill-opacity:1;" d="M 39.015625 48.730469 C 39.015625 48.730469 38.761719 48.925781 38.308594 49.253906 C 38.082031 49.417969 37.8125 49.625 37.476562 49.824219 C 37.144531 50.027344 36.777344 50.28125 36.355469 50.507812 C 35.925781 50.730469 35.480469 51.007812 34.972656 51.226562 C 34.71875 51.339844 34.460938 51.460938 34.195312 51.582031 C 33.929688 51.699219 33.644531 51.792969 33.359375 51.898438 C 33.214844 51.953125 33.070312 52.003906 32.925781 52.058594 C 32.777344 52.101562 32.628906 52.148438 32.476562 52.191406 C 32.171875 52.273438 31.871094 52.382812 31.550781 52.433594 C 31.230469 52.492188 30.90625 52.558594 30.582031 52.605469 L 30.078125 52.640625 L 29.828125 52.660156 L 29.640625 52.671875 L 29.605469 52.675781 L 29.582031 52.675781 C 29.566406 52.675781 29.609375 52.679688 29.542969 52.675781 C 29.226562 52.652344 28.914062 52.632812 28.597656 52.605469 C 28.269531 52.558594 27.933594 52.492188 27.605469 52.4375 C 27.273438 52.382812 26.980469 52.277344 26.675781 52.191406 C 26.523438 52.148438 26.371094 52.105469 26.222656 52.058594 C 26.078125 52.007812 25.933594 51.953125 25.792969 51.902344 C 25.507812 51.792969 25.222656 51.699219 24.953125 51.582031 C 24.691406 51.460938 24.429688 51.34375 24.179688 51.226562 C 23.667969 51.011719 23.222656 50.734375 22.796875 50.507812 C 22.371094 50.285156 22.007812 50.03125 21.675781 49.828125 C 21.339844 49.625 21.070312 49.417969 20.839844 49.257812 C 20.386719 48.925781 20.136719 48.730469 20.136719 48.730469 C 20.136719 48.730469 20.433594 48.851562 20.941406 49.078125 C 21.195312 49.191406 21.5 49.332031 21.859375 49.476562 C 22.21875 49.621094 22.613281 49.800781 23.050781 49.972656 C 23.273438 50.058594 23.5 50.144531 23.738281 50.238281 C 23.855469 50.285156 23.976562 50.332031 24.097656 50.378906 C 24.21875 50.421875 24.34375 50.46875 24.472656 50.511719 C 24.726562 50.601562 24.984375 50.691406 25.25 50.785156 C 25.519531 50.867188 25.792969 50.949219 26.070312 51.035156 C 26.210938 51.074219 26.351562 51.117188 26.492188 51.160156 C 26.632812 51.195312 26.777344 51.226562 26.921875 51.261719 C 27.066406 51.292969 27.210938 51.328125 27.359375 51.359375 C 27.503906 51.398438 27.648438 51.4375 27.792969 51.453125 C 28.078125 51.496094 28.359375 51.550781 28.65625 51.589844 C 28.972656 51.609375 29.289062 51.625 29.605469 51.644531 C 29.546875 51.640625 29.59375 51.640625 29.582031 51.640625 L 29.632812 51.640625 L 29.796875 51.628906 L 30.464844 51.59375 C 30.761719 51.554688 31.058594 51.5 31.355469 51.453125 C 31.503906 51.4375 31.648438 51.398438 31.792969 51.363281 C 31.9375 51.328125 32.085938 51.296875 32.230469 51.261719 C 32.375 51.230469 32.515625 51.195312 32.660156 51.164062 C 32.800781 51.121094 32.941406 51.078125 33.078125 51.035156 C 33.359375 50.949219 33.632812 50.867188 33.898438 50.785156 C 34.164062 50.691406 34.425781 50.601562 34.679688 50.511719 C 34.804688 50.46875 34.929688 50.425781 35.054688 50.382812 C 35.175781 50.332031 35.296875 50.285156 35.414062 50.238281 C 35.648438 50.148438 35.878906 50.058594 36.097656 49.972656 C 36.539062 49.804688 36.929688 49.621094 37.289062 49.476562 C 37.644531 49.332031 37.953125 49.191406 38.207031 49.078125 C 38.71875 48.851562 39.015625 48.730469 39.015625 48.730469 "/>
<path style=" stroke:none;fill-rule:nonzero;fill:rgb(47.44873%,54.508972%,80.778503%);fill-opacity:1;" d="M 39.015625 42.53125 C 39.015625 42.53125 38.714844 42.515625 38.191406 42.46875 C 37.929688 42.445312 37.613281 42.417969 37.25 42.378906 C 36.886719 42.339844 36.480469 42.28125 36.035156 42.246094 C 35.589844 42.210938 35.109375 42.167969 34.605469 42.109375 C 34.355469 42.082031 34.09375 42.050781 33.828125 42.027344 C 33.5625 42.015625 33.292969 41.992188 33.015625 41.96875 C 32.464844 41.929688 31.894531 41.871094 31.320312 41.847656 C 30.75 41.828125 30.171875 41.804688 29.597656 41.785156 C 29 41.808594 28.40625 41.828125 27.816406 41.847656 C 27.230469 41.875 26.679688 41.933594 26.128906 41.972656 C 25.855469 41.992188 25.585938 42.019531 25.320312 42.03125 C 25.054688 42.050781 24.796875 42.085938 24.542969 42.109375 C 24.035156 42.167969 23.554688 42.210938 23.109375 42.25 C 22.664062 42.285156 22.261719 42.34375 21.898438 42.378906 C 21.539062 42.421875 21.21875 42.445312 20.960938 42.46875 C 20.4375 42.515625 20.136719 42.53125 20.136719 42.53125 C 20.136719 42.53125 20.417969 42.429688 20.917969 42.269531 C 21.167969 42.191406 21.472656 42.089844 21.824219 41.988281 C 22.175781 41.886719 22.570312 41.753906 23.007812 41.664062 C 23.449219 41.558594 23.921875 41.449219 24.429688 41.347656 C 24.683594 41.292969 24.941406 41.234375 25.210938 41.183594 C 25.480469 41.136719 25.757812 41.105469 26.039062 41.0625 C 26.320312 41.023438 26.609375 40.984375 26.898438 40.941406 C 27.1875 40.902344 27.488281 40.851562 27.777344 40.847656 C 28.363281 40.816406 28.960938 40.785156 29.554688 40.75 C 30.167969 40.785156 30.78125 40.816406 31.386719 40.847656 C 31.6875 40.855469 31.976562 40.90625 32.265625 40.945312 C 32.554688 40.984375 32.839844 41.027344 33.117188 41.066406 C 33.398438 41.105469 33.671875 41.140625 33.941406 41.1875 C 34.210938 41.234375 34.46875 41.296875 34.722656 41.347656 C 35.230469 41.453125 35.707031 41.5625 36.144531 41.667969 C 36.585938 41.757812 36.976562 41.890625 37.328125 41.992188 C 37.679688 42.089844 37.980469 42.191406 38.230469 42.269531 C 38.730469 42.429688 39.015625 42.53125 39.015625 42.53125 "/>
<path style=" stroke:none;fill-rule:nonzero;fill:rgb(47.44873%,54.508972%,80.778503%);fill-opacity:1;" d="M 39.015625 45.871094 C 39.015625 45.871094 38.730469 45.972656 38.230469 46.132812 C 37.980469 46.210938 37.679688 46.3125 37.328125 46.410156 C 36.976562 46.511719 36.585938 46.644531 36.144531 46.734375 C 35.707031 46.839844 35.230469 46.949219 34.722656 47.054688 C 34.46875 47.105469 34.210938 47.167969 33.941406 47.214844 C 33.671875 47.261719 33.398438 47.296875 33.117188 47.335938 C 32.839844 47.375 32.554688 47.414062 32.265625 47.457031 C 31.976562 47.496094 31.6875 47.546875 31.386719 47.554688 C 30.78125 47.585938 30.167969 47.617188 29.554688 47.648438 C 28.960938 47.617188 28.363281 47.585938 27.777344 47.554688 C 27.488281 47.550781 27.191406 47.5 26.898438 47.460938 C 26.609375 47.417969 26.320312 47.378906 26.039062 47.339844 C 25.757812 47.296875 25.480469 47.261719 25.210938 47.21875 C 24.941406 47.167969 24.683594 47.105469 24.429688 47.054688 C 23.921875 46.953125 23.449219 46.839844 23.007812 46.738281 C 22.570312 46.648438 22.175781 46.515625 21.824219 46.414062 C 21.472656 46.3125 21.167969 46.210938 20.917969 46.132812 C 20.417969 45.972656 20.136719 45.871094 20.136719 45.871094 C 20.136719 45.871094 20.4375 45.886719 20.960938 45.929688 C 21.21875 45.957031 21.539062 45.980469 21.898438 46.023438 C 22.261719 46.058594 22.664062 46.117188 23.109375 46.152344 C 23.554688 46.191406 24.035156 46.234375 24.542969 46.289062 C 24.796875 46.316406 25.054688 46.351562 25.320312 46.371094 C 25.585938 46.382812 25.855469 46.410156 26.128906 46.429688 C 26.679688 46.46875 27.230469 46.527344 27.816406 46.554688 C 28.40625 46.574219 29 46.59375 29.597656 46.617188 C 30.171875 46.597656 30.75 46.574219 31.320312 46.554688 C 31.894531 46.53125 32.464844 46.46875 33.015625 46.433594 C 33.292969 46.410156 33.5625 46.386719 33.828125 46.371094 C 34.09375 46.351562 34.355469 46.320312 34.605469 46.292969 C 35.109375 46.234375 35.589844 46.191406 36.035156 46.15625 C 36.480469 46.121094 36.886719 46.058594 37.25 46.023438 C 37.613281 45.980469 37.929688 45.957031 38.191406 45.929688 C 38.714844 45.886719 39.015625 45.871094 39.015625 45.871094 "/>
<path style=" stroke:none;fill-rule:nonzero;fill:rgb(28.62854%,16.468811%,14.509583%);fill-opacity:1;" d="M 13.445312 18.847656 C 13.4375 18.433594 14.339844 18.058594 14.71875 17.871094 C 16.460938 17.003906 18.84375 16.027344 20.972656 16.453125 C 21.480469 16.554688 24.066406 17.507812 22.875 18.058594 C 21.667969 18.617188 21.117188 18.195312 19.75 18.082031 C 18.394531 17.96875 15.863281 18.570312 14.523438 18.761719 C 14.453125 18.773438 13.519531 19.007812 13.53125 19.015625 C 13.472656 18.964844 13.445312 18.90625 13.445312 18.847656 "/>
<path style=" stroke:none;fill-rule:nonzero;fill:rgb(100%,100%,100%);fill-opacity:1;" d="M 23.941406 23.78125 C 23.941406 25.246094 21.988281 26.429688 19.578125 26.429688 C 17.164062 26.429688 15.210938 25.246094 15.210938 23.78125 C 15.210938 22.316406 17.164062 21.128906 19.578125 21.128906 C 21.988281 21.128906 23.941406 22.316406 23.941406 23.78125 "/>
<path style=" stroke:none;fill-rule:nonzero;fill:rgb(28.62854%,16.468811%,14.509583%);fill-opacity:1;" d="M 22.28125 23.78125 C 22.28125 25.246094 21.070312 26.429688 19.578125 26.429688 C 18.082031 26.429688 16.871094 25.246094 16.871094 23.78125 C 16.871094 22.316406 18.082031 21.128906 19.578125 21.128906 C 21.070312 21.128906 22.28125 22.316406 22.28125 23.78125 "/>
<path style=" stroke:none;fill-rule:nonzero;fill:rgb(28.62854%,16.468811%,14.509583%);fill-opacity:1;" d="M 19.578125 21.265625 C 21.621094 21.265625 23.339844 22.269531 23.871094 23.382812 C 23.980469 23.15625 24.042969 22.910156 24.042969 22.660156 C 24.042969 21.199219 22.042969 20.011719 19.578125 20.011719 C 17.109375 20.011719 14.890625 23.449219 13.742188 22.046875 C 13.742188 23.289062 14.476562 23.617188 15.28125 23.382812 C 15.8125 22.269531 17.53125 21.265625 19.578125 21.265625 "/>
<path style=" stroke:none;fill-rule:nonzero;fill:rgb(100%,100%,100%);fill-opacity:1;" d="M 19.46875 23.027344 C 19.46875 23.445312 19.757812 23.78125 20.113281 23.78125 C 20.46875 23.78125 20.757812 23.445312 20.757812 23.027344 C 20.757812 22.613281 20.46875 22.277344 20.113281 22.277344 C 19.757812 22.277344 19.46875 22.613281 19.46875 23.027344 "/>
<path style=" stroke:none;fill-rule:nonzero;fill:rgb(28.62854%,16.468811%,14.509583%);fill-opacity:1;" d="M 45.082031 18.847656 C 45.089844 18.433594 44.1875 18.058594 43.808594 17.871094 C 42.066406 17.003906 39.683594 16.027344 37.554688 16.453125 C 37.046875 16.554688 34.464844 17.507812 35.65625 18.058594 C 36.859375 18.617188 37.410156 18.195312 38.777344 18.082031 C 40.132812 17.96875 42.664062 18.570312 44.003906 18.761719 C 44.074219 18.773438 45.007812 19.007812 44.996094 19.015625 C 45.054688 18.964844 45.082031 18.90625 45.082031 18.847656 "/>
<path style=" stroke:none;fill-rule:nonzero;fill:rgb(100%,100%,100%);fill-opacity:1;" d="M 34.585938 23.78125 C 34.585938 25.246094 36.539062 26.429688 38.949219 26.429688 C 41.363281 26.429688 43.316406 25.246094 43.316406 23.78125 C 43.316406 22.316406 41.363281 21.128906 38.949219 21.128906 C 36.539062 21.128906 34.585938 22.316406 34.585938 23.78125 "/>
<path style=" stroke:none;fill-rule:nonzero;fill:rgb(28.62854%,16.468811%,14.509583%);fill-opacity:1;" d="M 36.246094 23.78125 C 36.246094 25.246094 37.457031 26.429688 38.949219 26.429688 C 40.445312 26.429688 41.65625 25.246094 41.65625 23.78125 C 41.65625 22.316406 40.445312 21.128906 38.949219 21.128906 C 37.457031 21.128906 36.246094 22.316406 36.246094 23.78125 "/>
<path style=" stroke:none;fill-rule:nonzero;fill:rgb(28.62854%,16.468811%,14.509583%);fill-opacity:1;" d="M 38.949219 21.265625 C 36.90625 21.265625 35.1875 22.269531 34.65625 23.382812 C 34.546875 23.15625 34.484375 22.910156 34.484375 22.660156 C 34.484375 21.199219 36.484375 20.011719 38.949219 20.011719 C 41.417969 20.011719 43.636719 23.449219 44.785156 22.046875 C 44.785156 23.289062 44.050781 23.617188 43.246094 23.382812 C 42.714844 22.269531 40.996094 21.265625 38.949219 21.265625 "/>
<path style=" stroke:none;fill-rule:nonzero;fill:rgb(100%,100%,100%);fill-opacity:1;" d="M 39.058594 23.027344 C 39.058594 23.445312 38.769531 23.78125 38.414062 23.78125 C 38.058594 23.78125 37.769531 23.445312 37.769531 23.027344 C 37.769531 22.613281 38.058594 22.277344 38.414062 22.277344 C 38.769531 22.277344 39.058594 22.613281 39.058594 23.027344 "/>
<path style=" stroke:none;fill-rule:nonzero;fill:rgb(61.569214%,36.079407%,31.369019%);fill-opacity:1;" d="M 29.378906 0 C 11.578125 0 5.964844 15.796875 7.988281 19.089844 C 7.988281 19.089844 21.621094 17.15625 25.394531 13.609375 C 27.835938 11.320312 29.148438 9.398438 29.378906 7.976562 C 29.609375 9.398438 30.816406 11.320312 33.210938 13.609375 C 36.914062 17.15625 51.253906 18.160156 51.253906 18.160156 C 52.585938 11.449219 42.34375 0 29.378906 0 "/>
<path style=" stroke:none;fill-rule:nonzero;fill:rgb(64.709473%,88.238525%,85.879517%);fill-opacity:1;" d="M 30.023438 79.667969 C 30.015625 79.667969 30.003906 79.667969 29.992188 79.667969 C 27.277344 79.636719 25.601562 75.988281 23.65625 71.761719 C 22.699219 69.683594 21.710938 67.535156 20.605469 65.875 C 20.289062 65.402344 20.417969 64.757812 20.890625 64.441406 C 21.363281 64.121094 22.003906 64.25 22.320312 64.726562 C 23.515625 66.519531 24.535156 68.742188 25.527344 70.894531 C 26.898438 73.871094 28.601562 77.582031 30.015625 77.597656 C 30.019531 77.597656 30.019531 77.597656 30.023438 77.597656 C 31.367188 77.597656 32.914062 73.9375 34.15625 70.996094 C 35.152344 68.648438 36.179688 66.21875 37.457031 64.296875 C 37.773438 63.820312 38.414062 63.691406 38.886719 64.011719 C 39.359375 64.328125 39.488281 64.972656 39.171875 65.449219 C 38 67.207031 37.011719 69.546875 36.054688 71.808594 C 34.269531 76.023438 32.726562 79.667969 30.023438 79.667969 "/>
</g>
</svg>
