<?xml version="1.0" encoding="UTF-8"?>
<svg xmlns="http://www.w3.org/2000/svg" xmlns:xlink="http://www.w3.org/1999/xlink" width="60pt" height="102.749999pt" viewBox="0 0 60 102.749999" version="1.2">
<defs>
<clipPath id="clip1">
  <path d="M 0.0742188 3 L 58 3 L 58 83 L 0.0742188 83 Z M 0.0742188 3 "/>
</clipPath>
<clipPath id="clip2">
  <path d="M 0.0742188 62 L 59.925781 62 L 59.925781 102.5 L 0.0742188 102.5 Z M 0.0742188 62 "/>
</clipPath>
</defs>
<g id="surface1">
<g clip-path="url(#clip1)" clip-rule="nonzero">
<path style=" stroke:none;fill-rule:nonzero;fill:rgb(61.569214%,36.079407%,31.369019%);fill-opacity:1;" d="M 57.9375 43.324219 C 57.9375 65.210938 45.109375 82.953125 29.289062 82.953125 C 13.46875 82.953125 0.644531 65.210938 0.644531 43.324219 C 0.644531 21.4375 13.46875 3.695312 29.289062 3.695312 C 45.109375 3.695312 57.9375 21.4375 57.9375 43.324219 "/>
</g>
<g clip-path="url(#clip2)" clip-rule="nonzero">
<path style=" stroke:none;fill-rule:nonzero;fill:rgb(41.178894%,80.389404%,78.42865%);fill-opacity:1;" d="M 60.195312 82.625 C 60.195312 71.652344 46.742188 62.757812 30.144531 62.757812 C 13.550781 62.757812 0.09375 71.652344 0.09375 82.625 C 0.09375 93.601562 13.550781 102.496094 30.144531 102.496094 C 46.742188 102.496094 60.195312 93.601562 60.195312 82.625 "/>
</g>
<path style=" stroke:none;fill-rule:nonzero;fill:rgb(97.24884%,63.919067%,66.268921%);fill-opacity:1;" d="M 54.925781 27.300781 C 54.925781 31.351562 52.710938 34.640625 49.976562 34.640625 C 47.246094 34.640625 45.035156 31.351562 45.035156 27.300781 C 45.035156 23.246094 47.246094 19.957031 49.976562 19.957031 C 52.710938 19.957031 54.925781 23.246094 54.925781 27.300781 "/>
<path style=" stroke:none;fill-rule:nonzero;fill:rgb(92.158508%,52.938843%,50.19989%);fill-opacity:1;" d="M 53.292969 27.300781 C 53.292969 29.503906 51.949219 31.289062 50.292969 31.289062 C 48.632812 31.289062 51.972656 30.203125 51.523438 28.054688 C 51.203125 26.519531 48.632812 23.308594 50.292969 23.308594 C 51.949219 23.308594 53.292969 25.09375 53.292969 27.300781 "/>
<path style=" stroke:none;fill-rule:nonzero;fill:rgb(98.429871%,78.42865%,78.42865%);fill-opacity:1;" d="M 3.65625 27.300781 C 3.65625 31.351562 5.867188 34.640625 8.601562 34.640625 C 11.332031 34.640625 13.542969 31.351562 13.542969 27.300781 C 13.542969 23.246094 11.332031 19.957031 8.601562 19.957031 C 5.867188 19.957031 3.65625 23.246094 3.65625 27.300781 "/>
<path style=" stroke:none;fill-rule:nonzero;fill:rgb(92.158508%,52.938843%,50.19989%);fill-opacity:1;" d="M 5.285156 27.300781 C 5.285156 29.503906 6.628906 31.289062 8.285156 31.289062 C 9.945312 31.289062 6.605469 30.203125 7.054688 28.054688 C 7.378906 26.519531 9.945312 23.308594 8.285156 23.308594 C 6.628906 23.308594 5.285156 25.09375 5.285156 27.300781 "/>
<path style=" stroke:none;fill-rule:nonzero;fill:rgb(98.429871%,78.42865%,78.42865%);fill-opacity:1;" d="M 50.390625 32.035156 C 50.390625 46.816406 35.746094 54.378906 29.339844 54.378906 C 23.484375 54.378906 8.289062 46.816406 8.289062 32.035156 C 8.289062 8.671875 17.710938 5.269531 29.339844 5.269531 C 40.964844 5.269531 50.390625 17.253906 50.390625 32.035156 "/>
<path style=" stroke:none;fill-rule:nonzero;fill:rgb(97.24884%,63.919067%,66.268921%);fill-opacity:1;" d="M 29.507812 5.277344 L 29.507812 54.378906 C 36.527344 54.378906 50.390625 46.609375 50.390625 32.035156 C 50.390625 8.003906 41.054688 5.394531 29.507812 5.277344 "/>
<path style=" stroke:none;fill-rule:nonzero;fill:rgb(61.569214%,36.079407%,31.369019%);fill-opacity:1;" d="M 11.21875 24.941406 L 11.21875 12.769531 C 9.914062 15.921875 8.925781 19.914062 8.316406 24.941406 L 11.21875 24.941406 "/>
<path style=" stroke:none;fill-rule:nonzero;fill:rgb(61.569214%,36.079407%,31.369019%);fill-opacity:1;" d="M 51.339844 24.941406 C 50.269531 20.292969 48.882812 15.90625 47.214844 11.859375 L 47.214844 24.941406 L 51.339844 24.941406 "/>
<path style=" stroke:none;fill-rule:nonzero;fill:rgb(98.429871%,78.42865%,78.42865%);fill-opacity:1;" d="M 35.558594 44.683594 L 24.5 44.683594 C 26.050781 50.027344 25.078125 59.710938 21.582031 65.050781 C 24.378906 68.214844 27.351562 77.636719 30.144531 77.660156 C 32.980469 77.683594 35.640625 68.257812 38.476562 65.050781 C 34.980469 59.710938 34.011719 50.027344 35.558594 44.683594 "/>
<path style=" stroke:none;fill-rule:nonzero;fill:rgb(97.24884%,63.919067%,66.268921%);fill-opacity:1;" d="M 35.558594 44.683594 L 29.714844 44.683594 C 30.097656 46.46875 30.3125 48.292969 30.539062 50.097656 C 30.953125 53.355469 31.195312 61.503906 31.105469 64.789062 C 30.957031 70.300781 30.03125 70.738281 28.289062 75.863281 C 28.914062 76.96875 29.535156 77.65625 30.144531 77.660156 C 32.980469 77.683594 35.640625 68.257812 38.476562 65.050781 C 34.980469 59.710938 34.011719 50.027344 35.558594 44.683594 "/>
<path style=" stroke:none;fill-rule:nonzero;fill:rgb(56.858826%,61.959839%,84.309387%);fill-opacity:1;" d="M 39.15625 33.925781 L 38.300781 33.351562 C 48.058594 19.027344 49.023438 18.476562 49.894531 18.742188 C 50.492188 18.925781 50.492188 19.675781 50.492188 19.957031 L 49.460938 19.957031 C 49.460938 19.933594 49.460938 19.910156 49.460938 19.890625 C 47.8125 21.214844 41.8125 30.027344 39.15625 33.925781 "/>
<path style=" stroke:none;fill-rule:nonzero;fill:rgb(56.858826%,61.959839%,84.309387%);fill-opacity:1;" d="M 42.355469 38.613281 L 41.878906 37.707031 C 44.089844 36.5625 46.398438 35.929688 48.089844 35.464844 C 49.179688 35.167969 50.542969 34.792969 50.699219 34.519531 C 50.695312 34.53125 50.691406 34.558594 50.691406 34.574219 L 51.679688 34.265625 C 51.757812 34.523438 51.734375 34.78125 51.605469 35.011719 C 51.25 35.660156 50.160156 35.960938 48.363281 36.453125 C 46.628906 36.929688 44.46875 37.519531 42.355469 38.613281 "/>
<path style=" stroke:none;fill-rule:nonzero;fill:rgb(67.059326%,70.199585%,88.238525%);fill-opacity:1;" d="M 20.320312 33.929688 C 17.238281 29.523438 10.820312 20.351562 9.554688 20.039062 C 9.648438 20.0625 9.789062 19.988281 9.839844 19.902344 L 8.820312 19.796875 C 8.882812 19.230469 9.246094 19.078125 9.398438 19.039062 C 10.570312 18.738281 13.101562 21.816406 21.167969 33.347656 L 20.320312 33.929688 "/>
<path style=" stroke:none;fill-rule:nonzero;fill:rgb(67.059326%,70.199585%,88.238525%);fill-opacity:1;" d="M 17.238281 38.660156 C 16.164062 38.410156 15.167969 38.195312 14.207031 37.988281 C 9.816406 37.042969 7.164062 36.472656 7.164062 34.640625 L 8.199219 34.640625 C 8.199219 35.648438 11.082031 36.269531 14.425781 36.988281 C 15.390625 37.195312 16.390625 37.410156 17.472656 37.664062 L 17.238281 38.660156 "/>
<path style=" stroke:none;fill-rule:nonzero;fill:rgb(67.059326%,70.199585%,88.238525%);fill-opacity:1;" d="M 29.714844 57.617188 C 23.597656 57.617188 11.214844 46.304688 11.214844 41.742188 C 11.214844 35.683594 23.597656 25.871094 29.714844 25.871094 C 35.832031 25.871094 48.214844 35.683594 48.214844 41.742188 C 48.214844 44.871094 35.832031 57.617188 29.714844 57.617188 "/>
<path style=" stroke:none;fill-rule:nonzero;fill:rgb(56.858826%,61.959839%,84.309387%);fill-opacity:1;" d="M 29.714844 25.871094 C 29.671875 25.871094 29.628906 25.875 29.589844 25.875 L 29.589844 57.609375 C 29.628906 57.609375 29.671875 57.617188 29.714844 57.617188 C 35.832031 57.617188 48.214844 44.871094 48.214844 41.742188 C 48.214844 35.683594 35.832031 25.871094 29.714844 25.871094 "/>
<path style=" stroke:none;fill-rule:nonzero;fill:rgb(86.268616%,87.059021%,94.898987%);fill-opacity:1;" d="M 37.90625 33.320312 C 34.742188 31.222656 31.757812 30.019531 29.714844 30.019531 C 27.671875 30.019531 24.6875 31.222656 21.523438 33.320312 L 20.949219 32.46875 C 24.28125 30.261719 27.476562 28.996094 29.714844 28.996094 C 31.957031 28.996094 35.148438 30.261719 38.480469 32.46875 L 37.90625 33.320312 "/>
<path style=" stroke:none;fill-rule:nonzero;fill:rgb(47.44873%,54.508972%,80.778503%);fill-opacity:1;" d="M 39.179688 39.179688 C 39.179688 39.179688 38.878906 39.0625 38.371094 38.839844 C 38.113281 38.726562 37.804688 38.585938 37.445312 38.441406 C 37.089844 38.300781 36.695312 38.121094 36.253906 37.953125 C 36.035156 37.871094 35.804688 37.78125 35.566406 37.691406 C 35.449219 37.644531 35.328125 37.597656 35.207031 37.550781 C 35.082031 37.507812 34.957031 37.464844 34.832031 37.421875 C 34.578125 37.332031 34.316406 37.242188 34.050781 37.152344 C 33.78125 37.070312 33.507812 36.988281 33.226562 36.90625 C 33.089844 36.863281 32.949219 36.820312 32.808594 36.78125 C 32.664062 36.746094 32.519531 36.714844 32.375 36.679688 C 32.230469 36.648438 32.085938 36.613281 31.9375 36.582031 C 31.792969 36.546875 31.648438 36.507812 31.5 36.492188 C 31.203125 36.445312 30.90625 36.390625 30.605469 36.351562 L 29.9375 36.316406 L 29.828125 36.3125 L 29.769531 36.308594 L 29.742188 36.308594 L 29.730469 36.304688 L 29.722656 36.304688 C 29.734375 36.304688 29.6875 36.304688 29.746094 36.304688 C 29.429688 36.320312 29.113281 36.339844 28.796875 36.355469 C 28.5 36.394531 28.214844 36.449219 27.925781 36.492188 C 27.785156 36.507812 27.636719 36.546875 27.492188 36.582031 C 27.347656 36.617188 27.199219 36.648438 27.054688 36.683594 C 26.910156 36.714844 26.765625 36.746094 26.625 36.78125 C 26.480469 36.824219 26.34375 36.863281 26.203125 36.90625 C 25.925781 36.992188 25.648438 37.074219 25.382812 37.152344 C 25.113281 37.246094 24.855469 37.335938 24.601562 37.421875 C 24.472656 37.464844 24.347656 37.507812 24.222656 37.550781 C 24.101562 37.601562 23.980469 37.648438 23.863281 37.691406 C 23.625 37.785156 23.398438 37.871094 23.175781 37.953125 C 22.734375 38.125 22.339844 38.304688 21.980469 38.445312 C 21.621094 38.589844 21.316406 38.726562 21.0625 38.839844 C 20.550781 39.0625 20.253906 39.179688 20.253906 39.179688 C 20.253906 39.179688 20.503906 38.988281 20.960938 38.664062 C 21.1875 38.503906 21.460938 38.296875 21.796875 38.097656 C 22.128906 37.898438 22.496094 37.648438 22.917969 37.425781 C 23.347656 37.203125 23.792969 36.929688 24.304688 36.714844 C 24.558594 36.601562 24.816406 36.484375 25.082031 36.363281 C 25.351562 36.246094 25.636719 36.15625 25.921875 36.050781 C 26.066406 36 26.210938 35.945312 26.355469 35.894531 C 26.503906 35.847656 26.65625 35.804688 26.808594 35.761719 C 27.113281 35.679688 27.40625 35.574219 27.742188 35.519531 C 28.070312 35.464844 28.40625 35.398438 28.734375 35.351562 C 29.050781 35.328125 29.367188 35.304688 29.683594 35.285156 C 29.75 35.28125 29.707031 35.285156 29.722656 35.285156 L 29.746094 35.285156 L 29.777344 35.289062 L 29.839844 35.292969 L 29.96875 35.300781 L 30.21875 35.316406 L 30.722656 35.355469 C 31.050781 35.402344 31.371094 35.46875 31.695312 35.523438 C 32.015625 35.574219 32.316406 35.683594 32.625 35.761719 C 32.773438 35.808594 32.925781 35.851562 33.074219 35.894531 C 33.21875 35.945312 33.363281 36 33.507812 36.050781 C 33.792969 36.15625 34.078125 36.25 34.347656 36.367188 C 34.609375 36.484375 34.871094 36.601562 35.125 36.71875 C 35.636719 36.929688 36.082031 37.207031 36.511719 37.425781 C 36.9375 37.648438 37.304688 37.898438 37.636719 38.101562 C 37.972656 38.300781 38.242188 38.503906 38.472656 38.664062 C 38.925781 38.988281 39.179688 39.179688 39.179688 39.179688 "/>
<path style=" stroke:none;fill-rule:nonzero;fill:rgb(47.44873%,54.508972%,80.778503%);fill-opacity:1;" d="M 39.179688 48.128906 C 39.179688 48.128906 38.925781 48.324219 38.472656 48.648438 C 38.242188 48.808594 37.972656 49.011719 37.636719 49.210938 C 37.304688 49.410156 36.9375 49.660156 36.511719 49.882812 C 36.082031 50.105469 35.636719 50.378906 35.125 50.59375 C 34.871094 50.707031 34.609375 50.824219 34.347656 50.945312 C 34.078125 51.058594 33.792969 51.152344 33.507812 51.257812 C 33.363281 51.3125 33.21875 51.363281 33.074219 51.417969 C 32.925781 51.460938 32.773438 51.503906 32.625 51.546875 C 32.316406 51.628906 32.015625 51.738281 31.695312 51.789062 C 31.371094 51.84375 31.050781 51.90625 30.722656 51.957031 L 30.21875 51.992188 L 29.96875 52.007812 L 29.839844 52.019531 L 29.777344 52.023438 L 29.746094 52.023438 L 29.730469 52.027344 L 29.722656 52.027344 C 29.707031 52.027344 29.75 52.027344 29.683594 52.027344 C 29.367188 52.003906 29.050781 51.980469 28.734375 51.957031 C 28.40625 51.910156 28.070312 51.84375 27.742188 51.789062 C 27.40625 51.738281 27.113281 51.632812 26.808594 51.546875 C 26.65625 51.503906 26.503906 51.460938 26.355469 51.417969 C 26.210938 51.363281 26.066406 51.3125 25.921875 51.261719 C 25.636719 51.152344 25.351562 51.0625 25.082031 50.945312 C 24.816406 50.824219 24.558594 50.710938 24.304688 50.59375 C 23.792969 50.382812 23.347656 50.109375 22.917969 49.886719 C 22.496094 49.664062 22.128906 49.414062 21.796875 49.210938 C 21.460938 49.011719 21.1875 48.808594 20.960938 48.648438 C 20.503906 48.324219 20.253906 48.128906 20.253906 48.128906 C 20.253906 48.128906 20.550781 48.25 21.0625 48.472656 C 21.316406 48.582031 21.621094 48.722656 21.980469 48.867188 C 22.339844 49.007812 22.734375 49.1875 23.175781 49.355469 C 23.398438 49.441406 23.625 49.527344 23.863281 49.617188 C 23.980469 49.664062 24.101562 49.710938 24.222656 49.757812 C 24.347656 49.800781 24.472656 49.84375 24.601562 49.890625 C 24.855469 49.976562 25.113281 50.066406 25.382812 50.15625 C 25.648438 50.238281 25.925781 50.320312 26.203125 50.402344 C 26.34375 50.445312 26.480469 50.488281 26.625 50.53125 C 26.765625 50.5625 26.910156 50.59375 27.054688 50.628906 C 27.199219 50.660156 27.347656 50.695312 27.492188 50.726562 C 27.636719 50.765625 27.785156 50.800781 27.925781 50.816406 C 28.214844 50.863281 28.5 50.914062 28.796875 50.953125 C 29.113281 50.972656 29.429688 50.988281 29.746094 51.003906 C 29.6875 51.003906 29.734375 51.003906 29.722656 51.003906 L 29.742188 51.003906 L 29.769531 51 L 29.828125 51 L 29.9375 50.992188 L 30.605469 50.957031 C 30.90625 50.917969 31.203125 50.863281 31.5 50.820312 C 31.648438 50.800781 31.792969 50.761719 31.9375 50.726562 C 32.085938 50.695312 32.230469 50.664062 32.375 50.628906 C 32.519531 50.597656 32.664062 50.5625 32.808594 50.53125 C 32.949219 50.488281 33.089844 50.445312 33.226562 50.40625 C 33.507812 50.320312 33.78125 50.238281 34.050781 50.15625 C 34.316406 50.066406 34.578125 49.976562 34.832031 49.890625 C 34.957031 49.84375 35.082031 49.800781 35.207031 49.761719 C 35.328125 49.710938 35.449219 49.664062 35.566406 49.617188 C 35.804688 49.527344 36.035156 49.441406 36.253906 49.355469 C 36.695312 49.1875 37.089844 49.011719 37.445312 48.867188 C 37.804688 48.726562 38.113281 48.585938 38.371094 48.472656 C 38.878906 48.25 39.179688 48.128906 39.179688 48.128906 "/>
<path style=" stroke:none;fill-rule:nonzero;fill:rgb(47.44873%,54.508972%,80.778503%);fill-opacity:1;" d="M 39.179688 42.007812 C 39.179688 42.007812 38.875 41.992188 38.351562 41.945312 C 38.089844 41.921875 37.773438 41.894531 37.410156 41.855469 C 37.046875 41.820312 36.636719 41.757812 36.191406 41.726562 C 35.746094 41.6875 35.265625 41.648438 34.757812 41.589844 C 34.503906 41.5625 34.246094 41.53125 33.980469 41.511719 C 33.710938 41.496094 33.441406 41.472656 33.164062 41.453125 C 32.613281 41.414062 32.039062 41.351562 31.464844 41.328125 C 30.894531 41.308594 30.316406 41.289062 29.734375 41.269531 C 29.136719 41.289062 28.542969 41.3125 27.953125 41.332031 C 27.367188 41.355469 26.8125 41.414062 26.261719 41.453125 C 25.984375 41.472656 25.714844 41.5 25.449219 41.511719 C 25.183594 41.53125 24.925781 41.566406 24.671875 41.589844 C 24.164062 41.648438 23.679688 41.691406 23.234375 41.726562 C 22.789062 41.761719 22.382812 41.820312 22.019531 41.855469 C 21.660156 41.898438 21.339844 41.921875 21.078125 41.945312 C 20.554688 41.992188 20.253906 42.007812 20.253906 42.007812 C 20.253906 42.007812 20.535156 41.90625 21.035156 41.746094 C 21.289062 41.667969 21.59375 41.570312 21.945312 41.46875 C 22.296875 41.371094 22.691406 41.238281 23.132812 41.148438 C 23.574219 41.046875 24.050781 40.9375 24.558594 40.835938 C 24.8125 40.785156 25.070312 40.722656 25.339844 40.675781 C 25.609375 40.628906 25.886719 40.597656 26.171875 40.558594 C 26.453125 40.519531 26.742188 40.476562 27.03125 40.4375 C 27.324219 40.398438 27.621094 40.347656 27.914062 40.34375 C 28.5 40.3125 29.097656 40.28125 29.695312 40.25 C 30.308594 40.28125 30.925781 40.3125 31.53125 40.34375 C 31.832031 40.351562 32.125 40.402344 32.414062 40.441406 C 32.703125 40.480469 32.988281 40.519531 33.265625 40.558594 C 33.546875 40.597656 33.824219 40.632812 34.09375 40.679688 C 34.359375 40.726562 34.621094 40.785156 34.875 40.835938 C 35.382812 40.941406 35.863281 41.050781 36.300781 41.152344 C 36.746094 41.242188 37.132812 41.371094 37.484375 41.472656 C 37.839844 41.570312 38.140625 41.667969 38.390625 41.746094 C 38.894531 41.90625 39.179688 42.007812 39.179688 42.007812 "/>
<path style=" stroke:none;fill-rule:nonzero;fill:rgb(47.44873%,54.508972%,80.778503%);fill-opacity:1;" d="M 39.179688 45.304688 C 39.179688 45.304688 38.894531 45.402344 38.390625 45.5625 C 38.140625 45.640625 37.839844 45.738281 37.484375 45.839844 C 37.132812 45.9375 36.746094 46.070312 36.300781 46.160156 C 35.863281 46.261719 35.382812 46.371094 34.875 46.472656 C 34.621094 46.523438 34.359375 46.585938 34.09375 46.632812 C 33.824219 46.675781 33.546875 46.710938 33.265625 46.75 C 32.988281 46.792969 32.703125 46.828125 32.414062 46.871094 C 32.125 46.910156 31.832031 46.960938 31.53125 46.964844 C 30.925781 46.996094 30.308594 47.03125 29.695312 47.0625 C 29.097656 47.03125 28.5 46.996094 27.914062 46.964844 C 27.621094 46.960938 27.324219 46.914062 27.03125 46.875 C 26.742188 46.832031 26.453125 46.792969 26.171875 46.753906 C 25.886719 46.710938 25.609375 46.679688 25.339844 46.632812 C 25.070312 46.585938 24.8125 46.527344 24.558594 46.476562 C 24.050781 46.371094 23.574219 46.261719 23.132812 46.160156 C 22.691406 46.070312 22.296875 45.941406 21.945312 45.839844 C 21.59375 45.738281 21.289062 45.640625 21.035156 45.5625 C 20.535156 45.402344 20.253906 45.304688 20.253906 45.304688 C 20.253906 45.304688 20.554688 45.320312 21.078125 45.363281 C 21.339844 45.386719 21.660156 45.414062 22.019531 45.457031 C 22.382812 45.488281 22.789062 45.546875 23.234375 45.582031 C 23.679688 45.621094 24.164062 45.660156 24.671875 45.71875 C 24.925781 45.746094 25.183594 45.777344 25.449219 45.796875 C 25.714844 45.8125 25.984375 45.835938 26.261719 45.855469 C 26.8125 45.894531 27.367188 45.953125 27.953125 45.980469 C 28.542969 46 29.136719 46.019531 29.734375 46.039062 C 30.316406 46.019531 30.894531 46 31.464844 45.980469 C 32.039062 45.957031 32.613281 45.898438 33.164062 45.859375 C 33.441406 45.839844 33.710938 45.8125 33.980469 45.800781 C 34.246094 45.78125 34.503906 45.746094 34.757812 45.722656 C 35.265625 45.664062 35.746094 45.621094 36.191406 45.585938 C 36.636719 45.550781 37.046875 45.492188 37.410156 45.457031 C 37.773438 45.414062 38.089844 45.386719 38.351562 45.363281 C 38.875 45.320312 39.179688 45.304688 39.179688 45.304688 "/>
<path style=" stroke:none;fill-rule:nonzero;fill:rgb(28.62854%,16.468811%,14.509583%);fill-opacity:1;" d="M 13.542969 18.613281 C 13.539062 18.207031 14.445312 17.835938 14.824219 17.652344 C 16.566406 16.796875 18.960938 15.832031 21.089844 16.25 C 21.601562 16.347656 24.191406 17.292969 22.996094 17.835938 C 21.789062 18.386719 21.234375 17.972656 19.867188 17.859375 C 18.507812 17.746094 15.972656 18.339844 14.628906 18.53125 C 14.554688 18.542969 13.621094 18.773438 13.632812 18.78125 C 13.574219 18.730469 13.546875 18.671875 13.542969 18.613281 "/>
<path style=" stroke:none;fill-rule:nonzero;fill:rgb(100%,100%,100%);fill-opacity:1;" d="M 24.066406 23.488281 C 24.066406 24.933594 22.109375 26.105469 19.691406 26.105469 C 17.273438 26.105469 15.316406 24.933594 15.316406 23.488281 C 15.316406 22.039062 17.273438 20.867188 19.691406 20.867188 C 22.109375 20.867188 24.066406 22.039062 24.066406 23.488281 "/>
<path style=" stroke:none;fill-rule:nonzero;fill:rgb(28.62854%,16.468811%,14.509583%);fill-opacity:1;" d="M 22.402344 23.488281 C 22.402344 24.933594 21.1875 26.105469 19.691406 26.105469 C 18.195312 26.105469 16.980469 24.933594 16.980469 23.488281 C 16.980469 22.039062 18.195312 20.867188 19.691406 20.867188 C 21.1875 20.867188 22.402344 22.039062 22.402344 23.488281 "/>
<path style=" stroke:none;fill-rule:nonzero;fill:rgb(28.62854%,16.468811%,14.509583%);fill-opacity:1;" d="M 19.691406 21.003906 C 21.742188 21.003906 23.464844 21.996094 23.996094 23.09375 C 24.105469 22.867188 24.167969 22.628906 24.167969 22.382812 C 24.167969 20.9375 22.164062 19.761719 19.691406 19.761719 C 17.21875 19.761719 14.996094 23.160156 13.84375 21.773438 C 13.84375 23 14.582031 23.324219 15.386719 23.09375 C 15.917969 21.996094 17.644531 21.003906 19.691406 21.003906 "/>
<path style=" stroke:none;fill-rule:nonzero;fill:rgb(100%,100%,100%);fill-opacity:1;" d="M 19.585938 22.746094 C 19.585938 23.152344 19.875 23.488281 20.230469 23.488281 C 20.589844 23.488281 20.878906 23.152344 20.878906 22.746094 C 20.878906 22.335938 20.589844 22.003906 20.230469 22.003906 C 19.875 22.003906 19.585938 22.335938 19.585938 22.746094 "/>
<path style=" stroke:none;fill-rule:nonzero;fill:rgb(28.62854%,16.468811%,14.509583%);fill-opacity:1;" d="M 45.261719 18.613281 C 45.265625 18.207031 44.359375 17.835938 43.980469 17.652344 C 42.238281 16.796875 39.847656 15.832031 37.714844 16.25 C 37.203125 16.347656 34.613281 17.292969 35.808594 17.835938 C 37.019531 18.386719 37.570312 17.972656 38.9375 17.859375 C 40.296875 17.746094 42.835938 18.339844 44.175781 18.53125 C 44.25 18.542969 45.183594 18.773438 45.171875 18.78125 C 45.234375 18.730469 45.261719 18.671875 45.261719 18.613281 "/>
<path style=" stroke:none;fill-rule:nonzero;fill:rgb(100%,100%,100%);fill-opacity:1;" d="M 34.738281 23.488281 C 34.738281 24.933594 36.695312 26.105469 39.113281 26.105469 C 41.53125 26.105469 43.492188 24.933594 43.492188 23.488281 C 43.492188 22.039062 41.53125 20.867188 39.113281 20.867188 C 36.695312 20.867188 34.738281 22.039062 34.738281 23.488281 "/>
<path style=" stroke:none;fill-rule:nonzero;fill:rgb(28.62854%,16.468811%,14.509583%);fill-opacity:1;" d="M 36.402344 23.488281 C 36.402344 24.933594 37.617188 26.105469 39.113281 26.105469 C 40.609375 26.105469 41.824219 24.933594 41.824219 23.488281 C 41.824219 22.039062 40.609375 20.867188 39.113281 20.867188 C 37.617188 20.867188 36.402344 22.039062 36.402344 23.488281 "/>
<path style=" stroke:none;fill-rule:nonzero;fill:rgb(28.62854%,16.468811%,14.509583%);fill-opacity:1;" d="M 39.113281 21.003906 C 37.0625 21.003906 35.339844 21.996094 34.808594 23.09375 C 34.699219 22.867188 34.636719 22.628906 34.636719 22.382812 C 34.636719 20.9375 36.640625 19.761719 39.113281 19.761719 C 41.585938 19.761719 43.808594 23.160156 44.964844 21.773438 C 44.964844 23 44.222656 23.324219 43.417969 23.09375 C 42.886719 21.996094 41.164062 21.003906 39.113281 21.003906 "/>
<path style=" stroke:none;fill-rule:nonzero;fill:rgb(100%,100%,100%);fill-opacity:1;" d="M 39.222656 22.746094 C 39.222656 23.152344 38.933594 23.488281 38.574219 23.488281 C 38.21875 23.488281 37.929688 23.152344 37.929688 22.746094 C 37.929688 22.335938 38.21875 22.003906 38.574219 22.003906 C 38.933594 22.003906 39.222656 22.335938 39.222656 22.746094 "/>
<path style=" stroke:none;fill-rule:nonzero;fill:rgb(61.569214%,36.079407%,31.369019%);fill-opacity:1;" d="M 29.519531 0 C 11.671875 0 6.046875 15.601562 8.074219 18.855469 C 8.074219 18.855469 21.742188 16.945312 25.523438 13.441406 C 27.96875 11.179688 29.285156 9.285156 29.519531 7.878906 C 29.75 9.285156 30.960938 11.179688 33.359375 13.441406 C 37.070312 16.945312 51.445312 17.933594 51.445312 17.933594 C 52.78125 11.308594 42.515625 0 29.519531 0 "/>
<path style=" stroke:none;fill-rule:nonzero;fill:rgb(64.709473%,88.238525%,85.879517%);fill-opacity:1;" d="M 30.167969 78.683594 C 30.15625 78.683594 30.144531 78.683594 30.132812 78.683594 C 27.414062 78.65625 25.730469 75.050781 23.78125 70.875 C 22.824219 68.824219 21.832031 66.703125 20.726562 65.0625 C 20.40625 64.59375 20.535156 63.957031 21.007812 63.644531 C 21.484375 63.332031 22.125 63.457031 22.441406 63.925781 C 23.640625 65.699219 24.664062 67.894531 25.65625 70.019531 C 27.03125 72.960938 28.742188 76.621094 30.15625 76.636719 C 30.160156 76.636719 30.160156 76.636719 30.164062 76.636719 C 31.511719 76.636719 33.0625 73.023438 34.308594 70.121094 C 35.304688 67.800781 36.335938 65.402344 37.617188 63.503906 C 37.933594 63.03125 38.574219 62.90625 39.050781 63.21875 C 39.523438 63.535156 39.652344 64.171875 39.335938 64.640625 C 38.160156 66.378906 37.167969 68.6875 36.210938 70.921875 C 34.421875 75.085938 32.875 78.683594 30.167969 78.683594 "/>
</g>
</svg>
