<?xml version="1.0" encoding="UTF-8"?>
<svg xmlns="http://www.w3.org/2000/svg" xmlns:xlink="http://www.w3.org/1999/xlink" width="60pt" height="102.749999pt" viewBox="0 0 60 102.749999" version="1.2">
<defs>
<clipPath id="clip1">
  <path d="M 0.0742188 65 L 59 65 L 59 101.863281 L 0.0742188 101.863281 Z M 0.0742188 65 "/>
</clipPath>
<clipPath id="clip2">
  <path d="M 25 65 L 59 65 L 59 101.863281 L 25 101.863281 Z M 25 65 "/>
</clipPath>
<clipPath id="clip3">
  <path d="M 0.0742188 65 L 33 65 L 33 101.863281 L 0.0742188 101.863281 Z M 0.0742188 65 "/>
</clipPath>
</defs>
<g id="surface1">
<path style=" stroke:none;fill-rule:nonzero;fill:rgb(27.449036%,16.079712%,17.649841%);fill-opacity:1;" d="M 19.820312 41.335938 C 15.929688 43.664062 8.199219 44.675781 7.746094 39.863281 C 7.734375 39.746094 7.859375 39.65625 7.929688 39.558594 C 8.25 39.53125 9.148438 39.433594 9.457031 39.328125 C 6.871094 39.246094 4.402344 38.117188 3.246094 35.804688 C 3.230469 35.804688 3.382812 35.5625 3.382812 35.5625 C 3.402344 35.570312 4.621094 35.410156 4.757812 35.359375 C 0.121094 34.859375 1.433594 29.914062 5.820312 30.640625 C 2.425781 29.167969 2.542969 23.574219 6.648438 25.972656 C 3.1875 23.164062 6.46875 14.484375 10.054688 18.769531 C 4.976562 15.941406 8.792969 8.289062 12.984375 12.058594 C 12.988281 12.074219 13.003906 12.121094 12.894531 12.011719 C 12.144531 7.648438 17.828125 4.449219 18.726562 9.9375 C 18.628906 5.140625 23.710938 2.648438 24.515625 8.421875 C 24.847656 2.519531 29.746094 7.023438 29.429688 10.917969 C 29.75 5.316406 35.007812 7.621094 34.234375 12.214844 C 34.578125 11.628906 34.894531 10.433594 35.507812 10.390625 C 38.285156 10.199219 39.105469 21.097656 33.867188 17.335938 C 33.355469 20.015625 30.707031 20.816406 28.152344 19.824219 C 27.707031 22.488281 25.984375 23.140625 23.589844 21.84375 C 23.699219 24.34375 21.835938 25.523438 19.359375 24.867188 C 18.949219 26.007812 18.414062 27.003906 17.804688 28.214844 C 19.414062 30.375 19.5625 30.574219 18.390625 32.886719 C 18.335938 32.871094 18.332031 32.847656 18.371094 32.8125 C 20.511719 34.523438 20.21875 34.425781 19.746094 36.972656 C 20.429688 37.453125 20.917969 37.84375 21.414062 38.480469 C 21.398438 38.769531 20.757812 39.046875 20.796875 39.265625 C 20.957031 39.496094 21.152344 39.558594 21.285156 39.832031 C 20.832031 40.246094 20.371094 40.730469 19.847656 41.128906 "/>
<path style=" stroke:none;fill-rule:nonzero;fill:rgb(27.449036%,16.079712%,17.649841%);fill-opacity:1;" d="M 40.207031 41.335938 C 44.097656 43.664062 51.824219 44.675781 52.28125 39.863281 C 52.292969 39.746094 52.167969 39.65625 52.097656 39.558594 C 51.773438 39.53125 50.878906 39.433594 50.570312 39.328125 C 53.15625 39.246094 55.625 38.117188 56.78125 35.804688 C 56.796875 35.804688 56.644531 35.5625 56.644531 35.5625 C 56.621094 35.570312 55.40625 35.410156 55.269531 35.359375 C 59.90625 34.859375 58.59375 29.914062 54.207031 30.640625 C 57.601562 29.167969 57.484375 23.574219 53.378906 25.972656 C 56.839844 23.164062 53.558594 14.484375 49.972656 18.769531 C 55.050781 15.941406 51.234375 8.289062 47.042969 12.058594 C 47.039062 12.074219 47.023438 12.121094 47.132812 12.011719 C 47.882812 7.648438 42.199219 4.449219 41.296875 9.9375 C 41.398438 5.140625 36.316406 2.648438 35.511719 8.421875 C 35.179688 2.519531 30.277344 7.023438 30.59375 10.917969 C 30.277344 5.316406 25.019531 7.621094 25.792969 12.214844 C 25.445312 11.628906 25.132812 10.433594 24.519531 10.390625 C 21.742188 10.199219 20.921875 21.097656 26.160156 17.335938 C 26.671875 20.015625 29.320312 20.816406 31.871094 19.824219 C 32.320312 22.488281 34.042969 23.140625 36.433594 21.84375 C 36.328125 24.34375 38.191406 25.523438 40.667969 24.867188 C 41.078125 26.007812 41.613281 27.003906 42.222656 28.214844 C 40.613281 30.375 40.460938 30.574219 41.636719 32.886719 C 41.691406 32.871094 41.695312 32.847656 41.652344 32.8125 C 39.515625 34.523438 39.808594 34.425781 40.28125 36.972656 C 39.597656 37.453125 39.109375 37.84375 38.613281 38.480469 C 38.628906 38.769531 39.269531 39.046875 39.226562 39.265625 C 39.070312 39.496094 38.875 39.558594 38.738281 39.832031 C 39.195312 40.246094 39.65625 40.730469 40.179688 41.128906 "/>
<g clip-path="url(#clip1)" clip-rule="nonzero">
<path style=" stroke:none;fill-rule:nonzero;fill:rgb(94.119263%,20.779419%,40.388489%);fill-opacity:1;" d="M 58.359375 83.796875 C 58.359375 93.773438 45.320312 101.863281 29.230469 101.863281 C 13.140625 101.863281 0.101562 93.773438 0.101562 83.796875 C 0.101562 73.816406 13.140625 65.726562 29.230469 65.726562 C 45.320312 65.726562 58.359375 73.816406 58.359375 83.796875 "/>
</g>
<g clip-path="url(#clip2)" clip-rule="nonzero">
<path style=" stroke:none;fill-rule:nonzero;fill:rgb(74.899292%,14.898682%,31.369019%);fill-opacity:1;" d="M 29.230469 65.726562 C 28.066406 65.726562 26.917969 65.769531 25.789062 65.851562 C 40.257812 66.910156 51.480469 74.539062 51.480469 83.796875 C 51.480469 93.050781 40.257812 100.679688 25.789062 101.738281 C 26.917969 101.820312 28.066406 101.863281 29.230469 101.863281 C 45.320312 101.863281 58.359375 93.773438 58.359375 83.796875 C 58.359375 73.816406 45.320312 65.726562 29.230469 65.726562 "/>
</g>
<g clip-path="url(#clip3)" clip-rule="nonzero">
<path style=" stroke:none;fill-rule:nonzero;fill:rgb(74.899292%,14.898682%,31.369019%);fill-opacity:1;" d="M 29.230469 65.726562 C 30.394531 65.726562 31.542969 65.769531 32.671875 65.851562 C 18.203125 66.910156 6.980469 74.539062 6.980469 83.796875 C 6.980469 93.050781 18.203125 100.679688 32.671875 101.738281 C 31.542969 101.820312 30.394531 101.863281 29.230469 101.863281 C 13.140625 101.863281 0.101562 93.773438 0.101562 83.796875 C 0.101562 73.816406 13.140625 65.726562 29.230469 65.726562 "/>
</g>
<path style=" stroke:none;fill-rule:nonzero;fill:rgb(79.60968%,45.098877%,44.309998%);fill-opacity:1;" d="M 34.441406 46.128906 L 24.019531 46.128906 C 25.480469 53.304688 24.5625 60.480469 21.269531 67.65625 C 26.578125 76.207031 31.882812 76.207031 37.191406 67.65625 C 33.898438 60.480469 32.980469 53.304688 34.441406 46.128906 "/>
<path style=" stroke:none;fill-rule:nonzero;fill:rgb(78.819275%,32.939148%,34.118652%);fill-opacity:1;" d="M 34.441406 46.128906 L 29.171875 46.128906 C 29.125 48.96875 29.085938 51.460938 29.050781 52.738281 C 28.980469 55 29.765625 53.355469 29.816406 58.722656 C 29.851562 60.988281 27.914062 64.480469 28.746094 64.085938 C 30.222656 63.386719 30.570312 70.027344 28.789062 69.121094 C 27.460938 68.445312 26.453125 73.296875 26.425781 73.273438 C 30.015625 75.3125 33.601562 73.4375 37.191406 67.65625 C 33.898438 60.480469 32.980469 53.304688 34.441406 46.128906 "/>
<path style=" stroke:none;fill-rule:nonzero;fill:rgb(78.819275%,32.939148%,34.118652%);fill-opacity:1;" d="M 50.53125 35.542969 C 50.53125 37.945312 48.6875 39.894531 46.414062 39.894531 C 44.136719 39.894531 42.292969 37.945312 42.292969 35.542969 C 42.292969 33.140625 44.136719 31.191406 46.414062 31.191406 C 48.6875 31.191406 50.53125 33.140625 50.53125 35.542969 "/>
<path style=" stroke:none;fill-rule:nonzero;fill:rgb(45.489502%,23.919678%,23.919678%);fill-opacity:1;" d="M 49.175781 35.542969 C 49.175781 36.851562 48.054688 37.910156 46.671875 37.910156 C 45.292969 37.910156 48.074219 37.265625 47.699219 35.992188 C 47.433594 35.082031 45.292969 33.175781 46.671875 33.175781 C 48.054688 33.175781 49.175781 34.238281 49.175781 35.542969 "/>
<path style=" stroke:none;fill-rule:nonzero;fill:rgb(79.60968%,45.098877%,44.309998%);fill-opacity:1;" d="M 7.816406 35.542969 C 7.816406 37.945312 9.660156 39.894531 11.9375 39.894531 C 14.210938 39.894531 16.054688 37.945312 16.054688 35.542969 C 16.054688 33.140625 14.210938 31.191406 11.9375 31.191406 C 9.660156 31.191406 7.816406 33.140625 7.816406 35.542969 "/>
<path style=" stroke:none;fill-rule:nonzero;fill:rgb(45.489502%,23.919678%,23.919678%);fill-opacity:1;" d="M 9.171875 35.542969 C 9.171875 36.851562 10.292969 37.910156 11.675781 37.910156 C 13.054688 37.910156 10.273438 37.265625 10.648438 35.992188 C 10.917969 35.082031 13.054688 33.175781 11.675781 33.175781 C 10.292969 33.175781 9.171875 34.238281 9.171875 35.542969 "/>
<path style=" stroke:none;fill-rule:nonzero;fill:rgb(79.60968%,45.098877%,44.309998%);fill-opacity:1;" d="M 46.496094 35.859375 C 46.496094 47.652344 41.84375 57.210938 29.214844 57.210938 C 16.054688 57.210938 11.933594 47.652344 11.933594 35.859375 C 11.933594 24.070312 19.671875 14.511719 29.214844 14.511719 C 38.757812 14.511719 46.496094 24.070312 46.496094 35.859375 "/>
<path style=" stroke:none;fill-rule:nonzero;fill:rgb(78.819275%,32.939148%,34.118652%);fill-opacity:1;" d="M 29.214844 14.511719 C 28.257812 14.511719 27.316406 14.609375 26.402344 14.796875 L 29.121094 14.796875 L 29.121094 57.210938 C 29.152344 57.210938 29.183594 57.210938 29.214844 57.210938 C 41.84375 57.210938 46.496094 47.652344 46.496094 35.859375 C 46.496094 24.070312 38.757812 14.511719 29.214844 14.511719 "/>
<path style=" stroke:none;fill-rule:nonzero;fill:rgb(27.449036%,16.079712%,17.649841%);fill-opacity:1;" d="M 14.683594 33.773438 L 14.683594 24.3125 C 10.441406 21.253906 12.292969 30.308594 12.019531 33.773438 L 14.683594 33.773438 "/>
<path style=" stroke:none;fill-rule:nonzero;fill:rgb(27.449036%,16.079712%,17.649841%);fill-opacity:1;" d="M 46.414062 33.773438 C 46.179688 30.832031 53.988281 19.890625 44.371094 25.601562 L 44.371094 33.773438 L 46.414062 33.773438 "/>
<path style=" stroke:none;fill-rule:nonzero;fill:rgb(56.858826%,61.959839%,84.309387%);fill-opacity:1;" d="M 37.671875 42.582031 L 36.875 42.003906 L 37.351562 41.355469 C 44.585938 31.503906 45.746094 30.257812 46.507812 30.527344 C 46.605469 30.5625 46.933594 30.71875 46.90625 31.21875 L 45.921875 31.164062 C 45.921875 31.207031 45.964844 31.332031 46.097656 31.414062 C 46.226562 31.492188 46.359375 31.476562 46.40625 31.457031 C 45.566406 31.835938 41.101562 37.910156 38.148438 41.933594 L 37.671875 42.582031 "/>
<path style=" stroke:none;fill-rule:nonzero;fill:rgb(56.858826%,61.959839%,84.309387%);fill-opacity:1;" d="M 40.511719 46.570312 L 40.074219 45.691406 C 44.003906 43.757812 46.25 40.867188 46.164062 39.941406 L 47.144531 39.851562 C 47.289062 41.410156 44.601562 44.554688 40.511719 46.570312 "/>
<path style=" stroke:none;fill-rule:nonzero;fill:rgb(67.059326%,70.199585%,88.238525%);fill-opacity:1;" d="M 20.835938 42.582031 L 20.363281 41.9375 C 17.40625 37.914062 12.941406 31.835938 12.105469 31.457031 C 12.148438 31.476562 12.285156 31.492188 12.414062 31.414062 C 12.542969 31.332031 12.585938 31.207031 12.585938 31.15625 L 11.601562 31.21875 C 11.574219 30.71875 11.902344 30.5625 12 30.527344 C 12.765625 30.261719 13.921875 31.507812 21.160156 41.359375 L 21.632812 42.003906 L 20.835938 42.582031 "/>
<path style=" stroke:none;fill-rule:nonzero;fill:rgb(67.059326%,70.199585%,88.238525%);fill-opacity:1;" d="M 17.996094 46.570312 C 13.980469 44.589844 11.011719 41.632812 11.230469 39.835938 L 12.207031 39.953125 C 12.082031 40.984375 14.226562 43.617188 18.433594 45.691406 L 17.996094 46.570312 "/>
<path style=" stroke:none;fill-rule:nonzero;fill:rgb(67.059326%,70.199585%,88.238525%);fill-opacity:1;" d="M 29.214844 61.339844 C 24.289062 61.339844 14.320312 52.203125 14.320312 48.519531 C 14.320312 43.625 24.289062 35.699219 29.214844 35.699219 C 34.140625 35.699219 44.109375 43.625 44.109375 48.519531 C 44.109375 51.046875 34.140625 61.339844 29.214844 61.339844 "/>
<path style=" stroke:none;fill-rule:nonzero;fill:rgb(56.858826%,61.959839%,84.309387%);fill-opacity:1;" d="M 29.214844 35.699219 C 29.183594 35.699219 29.148438 35.703125 29.113281 35.703125 L 29.113281 61.335938 C 29.148438 61.335938 29.183594 61.339844 29.214844 61.339844 C 34.140625 61.339844 44.109375 51.046875 44.109375 48.519531 C 44.109375 43.625 34.140625 35.699219 29.214844 35.699219 "/>
<path style=" stroke:none;fill-rule:nonzero;fill:rgb(86.268616%,87.059021%,94.898987%);fill-opacity:1;" d="M 36.113281 42.066406 C 33.445312 40.292969 30.929688 39.277344 29.214844 39.277344 C 27.5 39.277344 24.984375 40.292969 22.316406 42.066406 L 21.769531 41.253906 C 24.636719 39.347656 27.28125 38.296875 29.214844 38.296875 C 31.148438 38.296875 33.792969 39.347656 36.660156 41.253906 L 36.113281 42.066406 "/>
<path style=" stroke:none;fill-rule:nonzero;fill:rgb(47.44873%,54.508972%,80.778503%);fill-opacity:1;" d="M 37.21875 46.996094 C 37.21875 46.996094 36.964844 46.898438 36.527344 46.714844 C 36.3125 46.621094 36.046875 46.503906 35.746094 46.386719 C 35.4375 46.269531 35.105469 46.121094 34.734375 45.980469 C 34.546875 45.914062 34.351562 45.839844 34.148438 45.765625 C 33.949219 45.6875 33.742188 45.609375 33.527344 45.539062 C 33.3125 45.46875 33.089844 45.390625 32.867188 45.316406 C 32.636719 45.25 32.40625 45.179688 32.171875 45.109375 C 32.054688 45.074219 31.933594 45.039062 31.816406 45.003906 C 31.695312 44.976562 31.574219 44.949219 31.453125 44.921875 C 31.207031 44.875 30.960938 44.800781 30.714844 44.765625 C 30.464844 44.726562 30.214844 44.679688 29.964844 44.648438 C 29.714844 44.636719 29.464844 44.625 29.214844 44.609375 C 28.957031 44.625 28.699219 44.640625 28.441406 44.65625 C 28.195312 44.695312 27.953125 44.730469 27.710938 44.769531 C 27.59375 44.78125 27.46875 44.8125 27.347656 44.84375 C 27.222656 44.871094 27.101562 44.898438 26.980469 44.925781 C 26.855469 44.953125 26.734375 44.980469 26.613281 45.007812 C 26.496094 45.042969 26.378906 45.078125 26.257812 45.113281 C 26.023438 45.179688 25.792969 45.25 25.566406 45.316406 C 25.339844 45.394531 25.121094 45.46875 24.90625 45.539062 C 24.6875 45.609375 24.480469 45.6875 24.28125 45.765625 C 24.082031 45.839844 23.886719 45.914062 23.699219 45.984375 C 23.324219 46.125 22.988281 46.273438 22.683594 46.390625 C 22.378906 46.507812 22.117188 46.625 21.902344 46.714844 C 21.46875 46.898438 21.210938 46.996094 21.210938 46.996094 C 21.210938 46.996094 21.421875 46.824219 21.804688 46.546875 C 21.996094 46.40625 22.226562 46.230469 22.507812 46.058594 C 22.785156 45.882812 23.09375 45.667969 23.453125 45.476562 C 23.8125 45.285156 24.191406 45.046875 24.625 44.863281 C 24.835938 44.765625 25.058594 44.664062 25.28125 44.5625 C 25.507812 44.460938 25.75 44.382812 25.992188 44.292969 C 26.113281 44.246094 26.234375 44.203125 26.359375 44.15625 C 26.484375 44.121094 26.613281 44.082031 26.742188 44.042969 C 27.003906 43.972656 27.25 43.882812 27.535156 43.835938 C 27.816406 43.785156 28.101562 43.722656 28.382812 43.6875 C 28.660156 43.667969 28.9375 43.648438 29.214844 43.632812 C 29.5 43.652344 29.789062 43.671875 30.074219 43.695312 C 30.351562 43.734375 30.625 43.789062 30.898438 43.835938 C 31.175781 43.878906 31.429688 43.972656 31.6875 44.042969 C 31.816406 44.082031 31.945312 44.121094 32.070312 44.15625 C 32.195312 44.203125 32.316406 44.246094 32.4375 44.292969 C 32.679688 44.382812 32.921875 44.464844 33.148438 44.5625 C 33.371094 44.667969 33.59375 44.769531 33.804688 44.867188 C 34.238281 45.050781 34.617188 45.285156 34.976562 45.476562 C 35.335938 45.667969 35.644531 45.886719 35.925781 46.058594 C 36.207031 46.230469 36.433594 46.40625 36.625 46.546875 C 37.007812 46.824219 37.21875 46.996094 37.21875 46.996094 "/>
<path style=" stroke:none;fill-rule:nonzero;fill:rgb(47.44873%,54.508972%,80.778503%);fill-opacity:1;" d="M 37.21875 54.589844 C 37.21875 54.589844 37.007812 54.757812 36.625 55.039062 C 36.433594 55.175781 36.210938 55.351562 35.925781 55.523438 C 35.644531 55.699219 35.335938 55.914062 34.976562 56.109375 C 34.617188 56.296875 34.238281 56.535156 33.804688 56.71875 C 33.59375 56.816406 33.371094 56.917969 33.148438 57.023438 C 32.921875 57.121094 32.679688 57.199219 32.4375 57.292969 C 32.316406 57.335938 32.195312 57.382812 32.070312 57.429688 C 31.945312 57.464844 31.816406 57.503906 31.6875 57.539062 C 31.429688 57.609375 31.175781 57.703125 30.898438 57.746094 C 30.625 57.792969 30.351562 57.851562 30.074219 57.890625 C 29.789062 57.910156 29.5 57.933594 29.214844 57.953125 C 28.9375 57.933594 28.660156 57.917969 28.382812 57.898438 C 28.101562 57.859375 27.816406 57.800781 27.535156 57.75 C 27.25 57.703125 27.003906 57.613281 26.742188 57.542969 C 26.613281 57.503906 26.484375 57.464844 26.359375 57.429688 C 26.234375 57.382812 26.113281 57.339844 25.992188 57.292969 C 25.75 57.199219 25.507812 57.125 25.28125 57.023438 C 25.058594 56.917969 24.835938 56.820312 24.625 56.71875 C 24.191406 56.535156 23.8125 56.300781 23.453125 56.109375 C 23.09375 55.917969 22.785156 55.703125 22.507812 55.527344 C 22.226562 55.355469 21.996094 55.179688 21.804688 55.039062 C 21.421875 54.757812 21.210938 54.589844 21.210938 54.589844 C 21.210938 54.589844 21.46875 54.6875 21.902344 54.871094 C 22.117188 54.960938 22.378906 55.078125 22.683594 55.195312 C 22.988281 55.3125 23.324219 55.460938 23.699219 55.601562 C 23.886719 55.671875 24.082031 55.742188 24.28125 55.816406 C 24.480469 55.898438 24.6875 55.976562 24.90625 56.042969 C 25.121094 56.117188 25.339844 56.191406 25.566406 56.265625 C 25.792969 56.335938 26.023438 56.402344 26.257812 56.472656 C 26.378906 56.507812 26.496094 56.542969 26.613281 56.578125 C 26.734375 56.605469 26.855469 56.632812 26.980469 56.660156 C 27.101562 56.6875 27.222656 56.714844 27.347656 56.742188 C 27.46875 56.773438 27.59375 56.804688 27.710938 56.816406 C 27.953125 56.855469 28.195312 56.890625 28.441406 56.929688 C 28.699219 56.945312 28.957031 56.957031 29.214844 56.972656 C 29.464844 56.960938 29.714844 56.949219 29.964844 56.933594 C 30.214844 56.902344 30.464844 56.859375 30.714844 56.820312 C 30.960938 56.785156 31.207031 56.707031 31.453125 56.660156 C 31.574219 56.632812 31.695312 56.605469 31.816406 56.582031 C 31.933594 56.546875 32.054688 56.507812 32.171875 56.472656 C 32.40625 56.40625 32.636719 56.335938 32.867188 56.269531 C 33.089844 56.191406 33.3125 56.117188 33.527344 56.046875 C 33.742188 55.976562 33.949219 55.898438 34.148438 55.820312 C 34.351562 55.746094 34.546875 55.671875 34.734375 55.601562 C 35.105469 55.460938 35.4375 55.316406 35.746094 55.199219 C 36.046875 55.078125 36.3125 54.964844 36.527344 54.871094 C 36.964844 54.6875 37.21875 54.589844 37.21875 54.589844 "/>
<path style=" stroke:none;fill-rule:nonzero;fill:rgb(47.44873%,54.508972%,80.778503%);fill-opacity:1;" d="M 37.21875 49.394531 C 37.21875 49.394531 36.960938 49.386719 36.519531 49.351562 C 36.296875 49.335938 36.027344 49.316406 35.71875 49.285156 C 35.410156 49.257812 35.0625 49.210938 34.6875 49.1875 C 34.308594 49.15625 33.902344 49.128906 33.472656 49.082031 C 33.261719 49.058594 33.039062 49.035156 32.816406 49.015625 C 32.589844 49.007812 32.359375 48.988281 32.125 48.972656 C 31.660156 48.941406 31.175781 48.890625 30.691406 48.871094 C 30.203125 48.855469 29.707031 48.839844 29.214844 48.824219 C 28.714844 48.839844 28.21875 48.859375 27.726562 48.875 C 27.230469 48.894531 26.761719 48.941406 26.296875 48.972656 C 25.835938 49.007812 25.382812 49.03125 24.953125 49.082031 C 24.527344 49.128906 24.117188 49.160156 23.738281 49.1875 C 23.363281 49.214844 23.019531 49.257812 22.710938 49.285156 C 22.40625 49.316406 22.132812 49.335938 21.914062 49.351562 C 21.46875 49.386719 21.210938 49.394531 21.210938 49.394531 C 21.210938 49.394531 21.449219 49.300781 21.871094 49.164062 C 22.085938 49.09375 22.339844 49.003906 22.636719 48.917969 C 22.9375 48.828125 23.269531 48.714844 23.644531 48.632812 C 24.015625 48.542969 24.417969 48.449219 24.847656 48.359375 C 25.0625 48.3125 25.28125 48.261719 25.507812 48.21875 C 25.734375 48.179688 25.972656 48.148438 26.210938 48.113281 C 26.453125 48.082031 26.695312 48.042969 26.941406 48.011719 C 27.1875 47.976562 27.441406 47.933594 27.6875 47.925781 C 28.195312 47.894531 28.671875 47.871094 29.214844 47.84375 C 29.730469 47.875 30.246094 47.902344 30.753906 47.929688 C 31.011719 47.933594 31.257812 47.976562 31.5 48.011719 C 31.746094 48.046875 31.988281 48.082031 32.226562 48.117188 C 32.460938 48.152344 32.695312 48.179688 32.921875 48.222656 C 33.148438 48.261719 33.371094 48.316406 33.585938 48.359375 C 34.015625 48.449219 34.417969 48.546875 34.792969 48.636719 C 35.167969 48.714844 35.496094 48.832031 35.792969 48.917969 C 36.089844 49.007812 36.34375 49.09375 36.558594 49.164062 C 36.980469 49.304688 37.21875 49.394531 37.21875 49.394531 "/>
<path style=" stroke:none;fill-rule:nonzero;fill:rgb(47.44873%,54.508972%,80.778503%);fill-opacity:1;" d="M 37.21875 52.191406 C 37.21875 52.191406 36.980469 52.28125 36.558594 52.421875 C 36.34375 52.492188 36.089844 52.578125 35.792969 52.667969 C 35.496094 52.753906 35.167969 52.867188 34.792969 52.949219 C 34.417969 53.039062 34.015625 53.136719 33.585938 53.226562 C 33.371094 53.269531 33.148438 53.324219 32.921875 53.363281 C 32.695312 53.40625 32.460938 53.433594 32.226562 53.46875 C 31.988281 53.503906 31.746094 53.539062 31.5 53.574219 C 31.257812 53.605469 31.011719 53.652344 30.753906 53.65625 C 30.246094 53.683594 29.730469 53.710938 29.214844 53.738281 C 28.671875 53.714844 28.195312 53.691406 27.6875 53.660156 C 27.441406 53.652344 27.1875 53.609375 26.941406 53.574219 C 26.695312 53.539062 26.453125 53.503906 26.210938 53.472656 C 25.972656 53.433594 25.734375 53.40625 25.507812 53.367188 C 25.28125 53.324219 25.0625 53.269531 24.847656 53.226562 C 24.417969 53.136719 24.015625 53.039062 23.644531 52.949219 C 23.269531 52.871094 22.9375 52.757812 22.636719 52.667969 C 22.339844 52.578125 22.085938 52.492188 21.871094 52.421875 C 21.449219 52.28125 21.210938 52.191406 21.210938 52.191406 C 21.210938 52.191406 21.46875 52.199219 21.914062 52.230469 C 22.132812 52.25 22.40625 52.265625 22.710938 52.300781 C 23.019531 52.324219 23.363281 52.371094 23.738281 52.398438 C 24.117188 52.425781 24.527344 52.457031 24.953125 52.503906 C 25.382812 52.554688 25.835938 52.578125 26.296875 52.613281 C 26.761719 52.640625 27.230469 52.691406 27.726562 52.707031 C 28.21875 52.726562 28.714844 52.742188 29.214844 52.761719 C 29.707031 52.746094 30.203125 52.730469 30.691406 52.710938 C 31.175781 52.691406 31.660156 52.644531 32.125 52.613281 C 32.359375 52.597656 32.589844 52.578125 32.816406 52.566406 C 33.039062 52.550781 33.261719 52.523438 33.472656 52.503906 C 33.902344 52.457031 34.308594 52.425781 34.6875 52.398438 C 35.0625 52.375 35.410156 52.328125 35.71875 52.300781 C 36.027344 52.269531 36.296875 52.25 36.519531 52.230469 C 36.960938 52.199219 37.21875 52.191406 37.21875 52.191406 "/>
<path style=" stroke:none;fill-rule:nonzero;fill:rgb(100%,100%,100%);fill-opacity:1;" d="M 34.433594 34.539062 C 34.433594 35.269531 35.578125 35.859375 36.984375 35.859375 C 38.394531 35.859375 39.535156 35.269531 39.535156 34.539062 C 39.535156 33.808594 38.394531 33.21875 36.984375 33.21875 C 35.578125 33.21875 34.433594 33.808594 34.433594 34.539062 "/>
<path style=" stroke:none;fill-rule:nonzero;fill:rgb(27.449036%,16.079712%,17.649841%);fill-opacity:1;" d="M 35.40625 34.539062 C 35.40625 35.269531 36.113281 35.859375 36.984375 35.859375 C 37.859375 35.859375 38.566406 35.269531 38.566406 34.539062 C 38.566406 33.808594 37.859375 33.21875 36.984375 33.21875 C 36.113281 33.21875 35.40625 33.808594 35.40625 34.539062 "/>
<path style=" stroke:none;fill-rule:nonzero;fill:rgb(27.449036%,16.079712%,17.649841%);fill-opacity:1;" d="M 36.984375 33.285156 C 35.792969 33.285156 34.785156 33.785156 34.476562 34.339844 C 34.414062 34.226562 34.375 34.105469 34.375 33.980469 C 34.375 33.25 35.542969 32.660156 36.984375 32.660156 C 38.425781 32.660156 39.59375 33.25 39.59375 33.980469 C 39.59375 34.105469 39.558594 34.226562 39.496094 34.339844 C 39.183594 33.785156 38.179688 33.285156 36.984375 33.285156 "/>
<path style=" stroke:none;fill-rule:nonzero;fill:rgb(27.449036%,16.079712%,17.649841%);fill-opacity:1;" d="M 41.289062 31.503906 C 41.292969 31.074219 40.496094 30.6875 40.160156 30.492188 C 38.625 29.589844 36.515625 28.574219 34.636719 29.015625 C 34.1875 29.121094 31.90625 30.113281 32.957031 30.683594 C 34.023438 31.265625 34.507812 30.828125 35.714844 30.710938 C 36.914062 30.59375 39.148438 31.214844 40.332031 31.417969 C 40.394531 31.425781 41.222656 31.671875 41.210938 31.679688 C 41.261719 31.625 41.289062 31.566406 41.289062 31.503906 "/>
<path style=" stroke:none;fill-rule:nonzero;fill:rgb(100%,100%,100%);fill-opacity:1;" d="M 37.046875 34.164062 C 37.046875 34.371094 36.878906 34.539062 36.671875 34.539062 C 36.464844 34.539062 36.292969 34.371094 36.292969 34.164062 C 36.292969 33.957031 36.464844 33.789062 36.671875 33.789062 C 36.878906 33.789062 37.046875 33.957031 37.046875 34.164062 "/>
<path style=" stroke:none;fill-rule:nonzero;fill:rgb(100%,100%,100%);fill-opacity:1;" d="M 24.875 34.539062 C 24.875 35.269531 23.734375 35.859375 22.324219 35.859375 C 20.917969 35.859375 19.773438 35.269531 19.773438 34.539062 C 19.773438 33.808594 20.917969 33.21875 22.324219 33.21875 C 23.734375 33.21875 24.875 33.808594 24.875 34.539062 "/>
<path style=" stroke:none;fill-rule:nonzero;fill:rgb(27.449036%,16.079712%,17.649841%);fill-opacity:1;" d="M 23.90625 34.539062 C 23.90625 35.269531 23.199219 35.859375 22.324219 35.859375 C 21.453125 35.859375 20.746094 35.269531 20.746094 34.539062 C 20.746094 33.808594 21.453125 33.21875 22.324219 33.21875 C 23.199219 33.21875 23.90625 33.808594 23.90625 34.539062 "/>
<path style=" stroke:none;fill-rule:nonzero;fill:rgb(27.449036%,16.079712%,17.649841%);fill-opacity:1;" d="M 22.324219 33.285156 C 23.519531 33.285156 24.523438 33.785156 24.835938 34.339844 C 24.898438 34.226562 24.933594 34.105469 24.933594 33.980469 C 24.933594 33.25 23.765625 32.660156 22.324219 32.660156 C 20.882812 32.660156 19.714844 33.25 19.714844 33.980469 C 19.714844 34.105469 19.753906 34.226562 19.816406 34.339844 C 20.125 33.785156 21.132812 33.285156 22.324219 33.285156 "/>
<path style=" stroke:none;fill-rule:nonzero;fill:rgb(27.449036%,16.079712%,17.649841%);fill-opacity:1;" d="M 18.023438 31.503906 C 18.019531 31.074219 18.816406 30.6875 19.152344 30.492188 C 20.6875 29.589844 22.792969 28.574219 24.671875 29.015625 C 25.121094 29.121094 27.40625 30.113281 26.351562 30.683594 C 25.289062 31.265625 24.800781 30.828125 23.59375 30.710938 C 22.398438 30.59375 20.160156 31.214844 18.976562 31.417969 C 18.914062 31.425781 18.089844 31.671875 18.101562 31.679688 C 18.046875 31.625 18.023438 31.566406 18.023438 31.503906 "/>
<path style=" stroke:none;fill-rule:nonzero;fill:rgb(100%,100%,100%);fill-opacity:1;" d="M 22.261719 34.164062 C 22.261719 34.371094 22.429688 34.539062 22.640625 34.539062 C 22.847656 34.539062 23.015625 34.371094 23.015625 34.164062 C 23.015625 33.957031 22.847656 33.789062 22.640625 33.789062 C 22.429688 33.789062 22.261719 33.957031 22.261719 34.164062 "/>
<path style=" stroke:none;fill-rule:nonzero;fill:rgb(74.899292%,14.898682%,31.369019%);fill-opacity:1;" d="M 29.203125 74.984375 C 29.132812 74.984375 29.058594 74.980469 28.984375 74.980469 C 24.050781 74.792969 20.886719 68.355469 20.753906 68.082031 C 20.519531 67.59375 20.726562 67.007812 21.214844 66.773438 C 21.707031 66.539062 22.296875 66.746094 22.53125 67.230469 C 22.558594 67.289062 25.3125 72.882812 29.0625 73.023438 C 31.339844 73.101562 33.664062 71.136719 35.964844 67.167969 C 36.234375 66.699219 36.839844 66.539062 37.308594 66.808594 C 37.78125 67.078125 37.945312 67.675781 37.671875 68.144531 C 35.039062 72.683594 32.191406 74.984375 29.203125 74.984375 "/>
<path style=" stroke:none;fill-rule:nonzero;fill:rgb(27.449036%,16.079712%,17.649841%);fill-opacity:1;" d="M 11.738281 30.328125 C 6.941406 28.125 0.910156 21.394531 5.273438 17.816406 C 5.378906 17.726562 5.550781 17.789062 5.691406 17.789062 C 5.925781 18.082031 6.605469 18.875 6.90625 19.101562 C 5.300781 16.574219 4.777344 13.472656 6.261719 10.855469 C 6.25 10.84375 6.582031 10.832031 6.585938 10.832031 C 6.59375 10.855469 7.542969 11.914062 7.679688 12.011719 C 5.136719 7.25 10.78125 5.277344 12.945312 9.945312 C 12.148438 5.738281 17.640625 2.195312 18.003906 7.6875 C 18.460938 2.542969 29.011719 0.0078125 27.203125 6.238281 C 26.621094 -0.464844 36.527344 -1.820312 35.613281 4.652344 C 35.597656 4.667969 35.566406 4.714844 35.601562 4.539062 C 39.332031 0.96875 46.144531 4.3125 41.417969 8.761719 C 45.996094 5.53125 51.734375 8.765625 46.667969 13.308594 C 52.601562 9.765625 51.441406 17.398438 47.464844 19.640625 C 53.097656 16.28125 54.300781 22.816406 49.347656 25.078125 C 50.144531 25.027344 51.503906 24.546875 51.945312 25.109375 C 53.945312 27.636719 43.933594 35.542969 44.152344 28.074219 C 41.222656 29.339844 38.71875 27.328125 38.007812 24.238281 C 35.136719 25.550781 33.382812 24.332031 33.070312 21.195312 C 30.722656 22.933594 28.363281 21.921875 27.378906 19.125 C 26.007812 19.476562 24.695312 19.613281 23.121094 19.824219 C 22.085938 22.773438 21.992188 23.046875 18.984375 23.4375 C 18.960938 23.375 18.980469 23.351562 19.042969 23.371094 C 18.785156 26.53125 18.6875 26.191406 15.914062 27.402344 C 15.894531 28.371094 15.835938 29.089844 15.546875 29.984375 C 15.253906 30.160156 14.566406 29.726562 14.382812 29.90625 C 14.261719 30.207031 14.332031 30.4375 14.152344 30.746094 C 13.453125 30.582031 12.683594 30.457031 11.957031 30.21875 "/>
</g>
</svg>
