<?xml version="1.0" encoding="UTF-8"?>
<svg xmlns="http://www.w3.org/2000/svg" xmlns:xlink="http://www.w3.org/1999/xlink" width="30pt" height="30.000001pt" viewBox="0 0 30 30.000001" version="1.2">
<defs>
<clipPath id="clip1">
  <path d="M 14 22 L 19 22 L 19 28.820312 L 14 28.820312 Z M 14 22 "/>
</clipPath>
<clipPath id="clip2">
  <path d="M 0.484375 0 L 29.515625 0 L 29.515625 28 L 0.484375 28 Z M 0.484375 0 "/>
</clipPath>
</defs>
<g id="surface1">
<path style=" stroke:none;fill-rule:nonzero;fill:rgb(73.728943%,12.159729%,33.329773%);fill-opacity:1;" d="M 8.097656 7.746094 L 10.003906 7.617188 L 10.003906 6.242188 L 9.808594 6.023438 C 8.898438 5.023438 8.324219 3.78125 8.070312 2.460938 C 8 2.097656 7.84375 1.742188 7.589844 1.433594 C 6.769531 0.417969 5.269531 0.253906 4.242188 1.066406 C 3.214844 1.875 3.046875 3.351562 3.867188 4.363281 C 4.121094 4.675781 4.4375 4.90625 4.78125 5.050781 C 6.035156 5.585938 7.132812 6.414062 7.925781 7.507812 L 8.097656 7.746094 "/>
<path style=" stroke:none;fill-rule:nonzero;fill:rgb(73.728943%,12.159729%,33.329773%);fill-opacity:1;" d="M 20.550781 6.992188 L 20.683594 6.890625 C 21.644531 6.128906 22.292969 5.0625 22.582031 3.878906 C 22.683594 3.46875 22.894531 3.078125 23.222656 2.757812 C 24.164062 1.828125 25.691406 1.828125 26.636719 2.757812 C 27.578125 3.6875 27.578125 5.191406 26.636719 6.121094 C 26.308594 6.441406 25.914062 6.652344 25.496094 6.75 C 24.296875 7.035156 23.210938 7.671875 22.441406 8.621094 L 22.335938 8.753906 L 20.550781 6.992188 "/>
<g clip-path="url(#clip1)" clip-rule="nonzero">
<path style=" stroke:none;fill-rule:nonzero;fill:rgb(73.728943%,12.159729%,33.329773%);fill-opacity:1;" d="M 16.84375 23.472656 L 16.847656 23.550781 C 16.886719 24.375 17.214844 25.152344 17.738281 25.796875 C 17.945312 26.054688 18.085938 26.375 18.125 26.730469 C 18.230469 27.722656 17.5 28.609375 16.496094 28.714844 C 15.492188 28.816406 14.589844 28.097656 14.484375 27.109375 C 14.445312 26.753906 14.515625 26.414062 14.664062 26.117188 C 15.039062 25.378906 15.195312 24.550781 15.0625 23.734375 L 15.046875 23.65625 L 15.773438 22.9375 L 16.84375 23.472656 "/>
</g>
<g clip-path="url(#clip2)" clip-rule="nonzero">
<path style=" stroke:none;fill-rule:nonzero;fill:rgb(90.19928%,14.509583%,34.899902%);fill-opacity:1;" d="M 24.429688 13.269531 C 24.464844 13.597656 24.484375 13.929688 24.484375 14.269531 C 24.484375 16.410156 23.757812 18.382812 22.53125 19.960938 C 23.652344 20.988281 24.957031 21.800781 26.363281 22.414062 C 26.625 22.527344 26.867188 22.691406 27.082031 22.902344 C 28.054688 23.855469 28.011719 25.433594 26.957031 26.335938 C 26.070312 27.09375 24.730469 27.097656 23.84375 26.339844 C 23.554688 26.09375 23.339844 25.796875 23.203125 25.476562 C 22.609375 24.089844 21.789062 22.8125 20.742188 21.726562 C 19.136719 22.9375 17.128906 23.660156 14.953125 23.660156 C 12.859375 23.660156 10.925781 22.996094 9.355469 21.867188 L 8.660156 22.414062 C 7.757812 23.125 7.15625 24.148438 7.003906 25.273438 C 6.921875 25.863281 6.652344 26.429688 6.191406 26.882812 C 5.046875 28.011719 3.175781 27.984375 2.066406 26.800781 C 1.066406 25.734375 1.0625 24.066406 2.058594 22.996094 C 2.519531 22.492188 3.121094 22.199219 3.746094 22.105469 C 4.894531 21.9375 5.945312 21.378906 6.671875 20.484375 L 7.238281 19.785156 C 6.097656 18.234375 5.421875 16.328125 5.421875 14.269531 C 5.421875 13.683594 5.476562 13.113281 5.578125 12.558594 C 4.675781 12.371094 3.742188 12.328125 2.824219 12.457031 C 2.574219 12.492188 2.3125 12.476562 2.050781 12.398438 C 1.042969 12.105469 0.484375 11.035156 0.851562 10.046875 C 1.15625 9.21875 2.050781 8.726562 2.925781 8.902344 C 3.242188 8.964844 3.523438 9.101562 3.75 9.292969 C 4.464844 9.886719 5.277344 10.347656 6.140625 10.679688 C 7.527344 7.375 10.773438 5.023438 14.59375 4.882812 C 14.5625 4.136719 14.472656 3.386719 14.335938 2.644531 C 14.300781 2.445312 14.292969 2.238281 14.316406 2.023438 C 14.464844 0.835938 15.601562 0 16.816406 0.230469 C 17.851562 0.425781 18.589844 1.363281 18.523438 2.402344 C 18.503906 2.679688 18.433594 2.941406 18.320312 3.175781 C 17.996094 3.835938 17.734375 4.523438 17.527344 5.226562 C 20.585938 6.070312 23.019531 8.375 24.007812 11.332031 C 24.90625 11.046875 25.761719 10.621094 26.550781 10.097656 C 26.738281 9.972656 26.953125 9.878906 27.191406 9.828125 C 28.21875 9.609375 29.234375 10.292969 29.386719 11.339844 C 29.515625 12.207031 28.972656 13.054688 28.121094 13.3125 C 27.8125 13.410156 27.5 13.417969 27.207031 13.359375 C 26.292969 13.175781 25.351562 13.152344 24.429688 13.269531 "/>
</g>
<path style=" stroke:none;fill-rule:nonzero;fill:rgb(46.669006%,75.689697%,16.859436%);fill-opacity:1;" d="M 15.429688 21.78125 L 14.476562 21.78125 L 14.476562 20.839844 L 15.429688 20.839844 L 15.429688 21.78125 "/>
<path style=" stroke:none;fill-rule:nonzero;fill:rgb(73.728943%,12.159729%,33.329773%);fill-opacity:1;" d="M 14.359375 9.039062 L 13.996094 8.953125 C 13.839844 8.917969 13.742188 8.765625 13.777344 8.609375 L 13.78125 8.601562 C 14.039062 7.511719 14.15625 6.363281 14.128906 5.183594 C 14.125 5.027344 14.246094 4.898438 14.402344 4.890625 L 14.777344 4.875 C 14.941406 4.871094 15.074219 4.996094 15.078125 5.15625 C 15.109375 6.417969 14.988281 7.648438 14.710938 8.816406 L 14.707031 8.824219 C 14.671875 8.980469 14.515625 9.074219 14.359375 9.039062 "/>
<path style=" stroke:none;fill-rule:nonzero;fill:rgb(73.728943%,12.159729%,33.329773%);fill-opacity:1;" d="M 17.160156 9.328125 L 16.785156 9.324219 C 16.625 9.324219 16.496094 9.195312 16.5 9.039062 L 16.5 9.027344 C 16.511719 7.773438 16.675781 6.546875 16.992188 5.378906 C 17.03125 5.222656 17.195312 5.128906 17.351562 5.175781 L 17.710938 5.277344 C 17.863281 5.320312 17.953125 5.472656 17.910156 5.621094 C 17.617188 6.714844 17.464844 7.863281 17.453125 9.035156 L 17.453125 9.046875 C 17.449219 9.203125 17.320312 9.328125 17.160156 9.328125 "/>
<path style=" stroke:none;fill-rule:nonzero;fill:rgb(73.728943%,12.159729%,33.329773%);fill-opacity:1;" d="M 22.335938 11.882812 L 22.277344 11.519531 C 22.253906 11.363281 22.359375 11.21875 22.519531 11.195312 L 22.632812 11.175781 C 22.953125 11.128906 23.273438 11.054688 23.59375 10.964844 C 23.742188 10.925781 23.902344 11.007812 23.949219 11.152344 L 24.0625 11.503906 C 24.113281 11.65625 24.027344 11.820312 23.871094 11.867188 C 23.507812 11.96875 23.144531 12.046875 22.78125 12.105469 L 22.667969 12.121094 C 22.507812 12.144531 22.363281 12.039062 22.335938 11.882812 "/>
<path style=" stroke:none;fill-rule:nonzero;fill:rgb(73.728943%,12.159729%,33.329773%);fill-opacity:1;" d="M 22.777344 13.804688 L 22.679688 13.449219 C 22.636719 13.296875 22.726562 13.140625 22.882812 13.097656 L 22.9375 13.085938 C 23.3125 12.980469 23.695312 12.902344 24.074219 12.84375 C 24.234375 12.816406 24.386719 12.929688 24.40625 13.089844 L 24.453125 13.457031 C 24.472656 13.609375 24.367188 13.75 24.210938 13.773438 C 23.871094 13.824219 23.527344 13.898438 23.1875 13.988281 L 23.132812 14.003906 C 22.980469 14.046875 22.820312 13.957031 22.777344 13.804688 "/>
<path style=" stroke:none;fill-rule:nonzero;fill:rgb(73.728943%,12.159729%,33.329773%);fill-opacity:1;" d="M 9.46875 22.011719 L 9.238281 21.726562 C 9.136719 21.601562 9.15625 21.421875 9.28125 21.324219 L 11.734375 19.390625 C 11.859375 19.292969 12.039062 19.3125 12.140625 19.4375 L 12.375 19.722656 C 12.472656 19.847656 12.453125 20.027344 12.328125 20.125 L 9.878906 22.058594 C 9.753906 22.15625 9.570312 22.136719 9.46875 22.011719 "/>
<path style=" stroke:none;fill-rule:nonzero;fill:rgb(73.728943%,12.159729%,33.329773%);fill-opacity:1;" d="M 7.382812 19.898438 L 7.09375 19.667969 C 6.96875 19.570312 6.949219 19.390625 7.046875 19.269531 L 9.007812 16.855469 C 9.109375 16.730469 9.289062 16.710938 9.414062 16.808594 L 9.707031 17.039062 C 9.832031 17.136719 9.851562 17.316406 9.753906 17.441406 L 7.792969 19.855469 C 7.691406 19.976562 7.507812 20 7.382812 19.898438 "/>
<path style=" stroke:none;fill-rule:nonzero;fill:rgb(73.728943%,12.159729%,33.329773%);fill-opacity:1;" d="M 7.203125 13.175781 C 7.140625 13.355469 6.941406 13.445312 6.761719 13.382812 L 6.628906 13.335938 C 6.359375 13.242188 6.082031 13.160156 5.808594 13.09375 C 5.628906 13.046875 5.511719 12.871094 5.550781 12.691406 L 5.605469 12.441406 C 5.644531 12.253906 5.835938 12.132812 6.027344 12.179688 C 6.335938 12.253906 6.644531 12.347656 6.949219 12.453125 L 7.078125 12.5 C 7.261719 12.5625 7.355469 12.757812 7.289062 12.9375 L 7.203125 13.175781 "/>
<path style=" stroke:none;fill-rule:nonzero;fill:rgb(73.728943%,12.159729%,33.329773%);fill-opacity:1;" d="M 7.78125 11.292969 C 7.738281 11.476562 7.550781 11.589844 7.363281 11.546875 C 7.003906 11.460938 6.648438 11.359375 6.304688 11.242188 C 6.117188 11.175781 6.027344 10.972656 6.097656 10.792969 L 6.191406 10.554688 C 6.261719 10.382812 6.453125 10.296875 6.632812 10.359375 C 6.941406 10.464844 7.257812 10.554688 7.582031 10.632812 C 7.769531 10.675781 7.886719 10.859375 7.84375 11.042969 L 7.78125 11.292969 "/>
<path style=" stroke:none;fill-rule:nonzero;fill:rgb(73.728943%,12.159729%,33.329773%);fill-opacity:1;" d="M 22.40625 20.09375 C 22.296875 20.210938 22.109375 20.214844 21.992188 20.105469 C 21.785156 19.90625 21.585938 19.699219 21.394531 19.488281 C 21.289062 19.371094 21.296875 19.191406 21.417969 19.085938 L 21.695312 18.839844 C 21.816406 18.734375 22 18.746094 22.105469 18.863281 C 22.277344 19.054688 22.460938 19.242188 22.652344 19.425781 C 22.765625 19.53125 22.769531 19.710938 22.664062 19.824219 L 22.40625 20.09375 "/>
<path style=" stroke:none;fill-rule:nonzero;fill:rgb(73.728943%,12.159729%,33.329773%);fill-opacity:1;" d="M 20.605469 21.855469 C 20.492188 21.964844 20.3125 21.960938 20.199219 21.851562 C 20.066406 21.71875 19.925781 21.589844 19.785156 21.464844 L 19.617188 21.316406 C 19.496094 21.210938 19.484375 21.03125 19.59375 20.914062 L 19.84375 20.636719 C 19.949219 20.519531 20.132812 20.511719 20.25 20.617188 L 20.417969 20.765625 C 20.578125 20.902344 20.730469 21.046875 20.878906 21.195312 C 20.996094 21.308594 20.992188 21.492188 20.875 21.601562 L 20.605469 21.855469 "/>
<path style=" stroke:none;fill-rule:nonzero;fill:rgb(46.669006%,75.689697%,16.859436%);fill-opacity:1;" d="M 14.984375 15.707031 C 14.238281 16.441406 12.878906 16.292969 11.949219 15.375 C 11.019531 14.457031 10.867188 13.121094 11.613281 12.386719 C 12.359375 11.652344 13.714844 11.800781 14.644531 12.71875 C 15.574219 13.636719 15.726562 14.972656 14.984375 15.707031 "/>
<path style=" stroke:none;fill-rule:nonzero;fill:rgb(46.669006%,75.689697%,16.859436%);fill-opacity:1;" d="M 19.957031 15.441406 C 19.527344 15.863281 18.75 15.777344 18.214844 15.25 C 17.683594 14.726562 17.597656 13.957031 18.023438 13.539062 C 18.449219 13.117188 19.230469 13.203125 19.761719 13.726562 C 20.296875 14.253906 20.382812 15.019531 19.957031 15.441406 "/>
<path style=" stroke:none;fill-rule:nonzero;fill:rgb(46.669006%,75.689697%,16.859436%);fill-opacity:1;" d="M 16.230469 19.492188 C 15.660156 19.300781 15.390625 18.574219 15.628906 17.871094 C 15.871094 17.167969 16.527344 16.746094 17.101562 16.9375 C 17.671875 17.125 17.941406 17.851562 17.703125 18.554688 C 17.464844 19.261719 16.804688 19.679688 16.230469 19.492188 "/>
<path style=" stroke:none;fill-rule:nonzero;fill:rgb(46.669006%,75.689697%,16.859436%);fill-opacity:1;" d="M 11.140625 10.042969 L 10.1875 10.042969 L 10.1875 9.101562 L 11.140625 9.101562 L 11.140625 10.042969 "/>
<path style=" stroke:none;fill-rule:nonzero;fill:rgb(46.669006%,75.689697%,16.859436%);fill-opacity:1;" d="M 20.671875 10.511719 L 19.71875 10.511719 L 19.71875 9.574219 L 20.671875 9.574219 L 20.671875 10.511719 "/>
<path style=" stroke:none;fill-rule:nonzero;fill:rgb(46.669006%,75.689697%,16.859436%);fill-opacity:1;" d="M 22.101562 17.085938 L 21.148438 17.085938 L 21.148438 16.144531 L 22.101562 16.144531 L 22.101562 17.085938 "/>
<path style=" stroke:none;fill-rule:nonzero;fill:rgb(46.669006%,75.689697%,16.859436%);fill-opacity:1;" d="M 16.859375 11.921875 L 15.90625 11.921875 L 15.90625 10.980469 L 16.859375 10.980469 L 16.859375 11.921875 "/>
<path style=" stroke:none;fill-rule:nonzero;fill:rgb(46.669006%,75.689697%,16.859436%);fill-opacity:1;" d="M 9.234375 15.207031 L 8.28125 15.207031 L 8.28125 14.269531 L 9.234375 14.269531 L 9.234375 15.207031 "/>
</g>
</svg>
